%TF.GenerationSoftware,KiCad,Pcbnew,(6.0.8)*%
%TF.CreationDate,2022-11-02T08:43:43+01:00*%
%TF.ProjectId,project_capteur_CO2,70726f6a-6563-4745-9f63-617074657572,rev?*%
%TF.SameCoordinates,Original*%
%TF.FileFunction,Copper,L1,Top*%
%TF.FilePolarity,Positive*%
%FSLAX46Y46*%
G04 Gerber Fmt 4.6, Leading zero omitted, Abs format (unit mm)*
G04 Created by KiCad (PCBNEW (6.0.8)) date 2022-11-02 08:43:43*
%MOMM*%
%LPD*%
G01*
G04 APERTURE LIST*
%TA.AperFunction,ComponentPad*%
%ADD10R,0.850000X0.850000*%
%TD*%
%TA.AperFunction,ComponentPad*%
%ADD11O,0.850000X0.850000*%
%TD*%
%TA.AperFunction,ComponentPad*%
%ADD12C,1.350000*%
%TD*%
%TA.AperFunction,ComponentPad*%
%ADD13R,1.350000X1.350000*%
%TD*%
%TA.AperFunction,ComponentPad*%
%ADD14R,1.800000X1.800000*%
%TD*%
%TA.AperFunction,ComponentPad*%
%ADD15C,1.800000*%
%TD*%
%TA.AperFunction,ComponentPad*%
%ADD16C,1.600000*%
%TD*%
%TA.AperFunction,ComponentPad*%
%ADD17O,1.600000X1.600000*%
%TD*%
%TA.AperFunction,ComponentPad*%
%ADD18R,1.500000X1.500000*%
%TD*%
%TA.AperFunction,ComponentPad*%
%ADD19C,1.500000*%
%TD*%
%TA.AperFunction,Conductor*%
%ADD20C,0.250000*%
%TD*%
G04 APERTURE END LIST*
D10*
%TO.P,J1,1,Pin_1*%
%TO.N,Net-(J1-Pad1)*%
X185420000Y-53340000D03*
D11*
%TO.P,J1,2,Pin_2*%
%TO.N,Net-(J1-Pad2)*%
X185420000Y-52340000D03*
%TO.P,J1,3,Pin_3*%
%TO.N,GND*%
X185420000Y-51340000D03*
%TD*%
D12*
%TO.P,U1,J5_19,3V3*%
%TO.N,Net-(J1-Pad2)*%
X213060000Y-50800000D03*
%TO.P,U1,J5_18,EN*%
%TO.N,unconnected-(U1-PadJ5_18)*%
X213060000Y-53340000D03*
D13*
%TO.P,U1,J5_1,5V*%
%TO.N,unconnected-(U1-PadJ5_1)*%
X213060000Y-96520000D03*
D12*
%TO.P,U1,J5_17,SP*%
%TO.N,unconnected-(U1-PadJ5_17)*%
X213060000Y-55880000D03*
%TO.P,U1,J5_16,SN*%
%TO.N,unconnected-(U1-PadJ5_16)*%
X213060000Y-58420000D03*
%TO.P,U1,J5_15,G34*%
%TO.N,unconnected-(U1-PadJ5_15)*%
X213060000Y-60960000D03*
%TO.P,U1,J5_14,G35*%
%TO.N,Net-(J1-Pad1)*%
X213060000Y-63500000D03*
%TO.P,U1,J5_13,G32*%
%TO.N,unconnected-(U1-PadJ5_13)*%
X213060000Y-66040000D03*
%TO.P,U1,J5_12,G33*%
%TO.N,unconnected-(U1-PadJ5_12)*%
X213060000Y-68580000D03*
%TO.P,U1,J5_11,G25*%
%TO.N,Net-(U1-PadJ5_11)*%
X213060000Y-71120000D03*
%TO.P,U1,J5_10,G26*%
%TO.N,unconnected-(U1-PadJ5_10)*%
X213060000Y-73660000D03*
%TO.P,U1,J5_9,G27*%
%TO.N,unconnected-(U1-PadJ5_9)*%
X213060000Y-76200000D03*
%TO.P,U1,J5_8,G14*%
%TO.N,Net-(R3-Pad2)*%
X213060000Y-78740000D03*
%TO.P,U1,J5_7,G12*%
%TO.N,Net-(R2-Pad2)*%
X213060000Y-81280000D03*
%TO.P,U1,J5_6,GND*%
%TO.N,GND*%
X213060000Y-83820000D03*
%TO.P,U1,J5_5,G13*%
%TO.N,Net-(R1-Pad2)*%
X213060000Y-86360000D03*
%TO.P,U1,J5_4,SD2*%
%TO.N,unconnected-(U1-PadJ5_4)*%
X213060000Y-88900000D03*
%TO.P,U1,J5_3,SD3*%
%TO.N,unconnected-(U1-PadJ5_3)*%
X213060000Y-91440000D03*
%TO.P,U1,J5_2,CMD*%
%TO.N,unconnected-(U1-PadJ5_2)*%
X213060000Y-93980000D03*
%TO.P,U1,J4_19,CLK*%
%TO.N,unconnected-(U1-PadJ4_19)*%
X239060000Y-96520000D03*
%TO.P,U1,J4_18,SD0*%
%TO.N,unconnected-(U1-PadJ4_18)*%
X239060000Y-93980000D03*
%TO.P,U1,J4_17,SD1*%
%TO.N,unconnected-(U1-PadJ4_17)*%
X239060000Y-91440000D03*
%TO.P,U1,J4_16,G15*%
%TO.N,unconnected-(U1-PadJ4_16)*%
X239060000Y-88900000D03*
%TO.P,U1,J4_15,G2*%
%TO.N,unconnected-(U1-PadJ4_15)*%
X239060000Y-86360000D03*
%TO.P,U1,J4_14,G0*%
%TO.N,unconnected-(U1-PadJ4_14)*%
X239060000Y-83820000D03*
%TO.P,U1,J4_13,G4*%
%TO.N,unconnected-(U1-PadJ4_13)*%
X239060000Y-81280000D03*
%TO.P,U1,J4_12,G16*%
%TO.N,unconnected-(U1-PadJ4_12)*%
X239060000Y-78740000D03*
%TO.P,U1,J4_11,G17*%
%TO.N,unconnected-(U1-PadJ4_11)*%
X239060000Y-76200000D03*
%TO.P,U1,J4_10,G5*%
%TO.N,unconnected-(U1-PadJ4_10)*%
X239060000Y-73660000D03*
%TO.P,U1,J4_9,G18*%
%TO.N,unconnected-(U1-PadJ4_9)*%
X239060000Y-71120000D03*
%TO.P,U1,J4_8,G19*%
%TO.N,unconnected-(U1-PadJ4_8)*%
X239060000Y-68580000D03*
%TO.P,U1,J4_7,GND*%
%TO.N,GND*%
X239060000Y-66040000D03*
%TO.P,U1,J4_6,G21*%
%TO.N,unconnected-(U1-PadJ4_6)*%
X239060000Y-63500000D03*
%TO.P,U1,J4_5,RXD*%
%TO.N,unconnected-(U1-PadJ4_5)*%
X239060000Y-60960000D03*
%TO.P,U1,J4_4,TXD*%
%TO.N,unconnected-(U1-PadJ4_4)*%
X239060000Y-58420000D03*
%TO.P,U1,J4_3,G22*%
%TO.N,unconnected-(U1-PadJ4_3)*%
X239060000Y-55880000D03*
%TO.P,U1,J4_2,G23*%
%TO.N,unconnected-(U1-PadJ4_2)*%
X239060000Y-53340000D03*
D13*
%TO.P,U1,J4_1,GND*%
%TO.N,GND*%
X239060000Y-50800000D03*
%TD*%
D14*
%TO.P,D3,1,K*%
%TO.N,GND*%
X185225000Y-68580000D03*
D15*
%TO.P,D3,2,A*%
%TO.N,Net-(D3-Pad2)*%
X187765000Y-68580000D03*
%TD*%
D14*
%TO.P,D2,1,K*%
%TO.N,GND*%
X185225000Y-82000000D03*
D15*
%TO.P,D2,2,A*%
%TO.N,Net-(D2-Pad2)*%
X187765000Y-82000000D03*
%TD*%
D14*
%TO.P,D1,1,K*%
%TO.N,GND*%
X185225000Y-96000000D03*
D15*
%TO.P,D1,2,A*%
%TO.N,Net-(D1-Pad2)*%
X187765000Y-96000000D03*
%TD*%
D16*
%TO.P,R3,1*%
%TO.N,Net-(D3-Pad2)*%
X194650000Y-68580000D03*
D17*
%TO.P,R3,2*%
%TO.N,Net-(R3-Pad2)*%
X207350000Y-68580000D03*
%TD*%
D16*
%TO.P,R2,1*%
%TO.N,Net-(D2-Pad2)*%
X194650000Y-82000000D03*
D17*
%TO.P,R2,2*%
%TO.N,Net-(R2-Pad2)*%
X207350000Y-82000000D03*
%TD*%
D16*
%TO.P,R1,1*%
%TO.N,Net-(D1-Pad2)*%
X194650000Y-96000000D03*
D17*
%TO.P,R1,2*%
%TO.N,Net-(R1-Pad2)*%
X207350000Y-96000000D03*
%TD*%
D18*
%TO.P,U2,1,VCC*%
%TO.N,Net-(J1-Pad2)*%
X203102500Y-57052500D03*
D19*
%TO.P,U2,2,IO*%
%TO.N,Net-(U1-PadJ5_11)*%
X203102500Y-54512500D03*
%TO.P,U2,3,NC*%
%TO.N,unconnected-(U2-Pad3)*%
X203102500Y-51972500D03*
%TO.P,U2,4,GND*%
%TO.N,GND*%
X203102500Y-49432500D03*
%TD*%
D20*
%TO.N,GND*%
X185225000Y-68580000D02*
X185225000Y-60725000D01*
X185225000Y-60725000D02*
X181500000Y-57000000D01*
X181500000Y-57000000D02*
X181500000Y-55260000D01*
X237692500Y-49432500D02*
X239060000Y-50800000D01*
X203102500Y-49432500D02*
X237692500Y-49432500D01*
X185225000Y-68580000D02*
X185225000Y-82000000D01*
X185225000Y-96000000D02*
X185225000Y-82000000D01*
%TO.N,Net-(U1-PadJ5_11)*%
X210500000Y-69000000D02*
X210000000Y-69500000D01*
X210500000Y-60500000D02*
X210500000Y-69000000D01*
X204512500Y-54512500D02*
X210500000Y-60500000D01*
X210000000Y-69500000D02*
X211620000Y-71120000D01*
X211620000Y-71120000D02*
X213060000Y-71120000D01*
X203102500Y-54512500D02*
X204512500Y-54512500D01*
%TO.N,Net-(J1-Pad2)*%
X191840000Y-52340000D02*
X196552500Y-57052500D01*
X196552500Y-57052500D02*
X203102500Y-57052500D01*
X185420000Y-52340000D02*
X191840000Y-52340000D01*
%TO.N,GND*%
X193067500Y-49432500D02*
X203102500Y-49432500D01*
X191160000Y-51340000D02*
X193067500Y-49432500D01*
X185420000Y-51340000D02*
X191160000Y-51340000D01*
%TO.N,Net-(D3-Pad2)*%
X194650000Y-68580000D02*
X187765000Y-68580000D01*
%TO.N,Net-(D2-Pad2)*%
X194650000Y-82000000D02*
X187765000Y-82000000D01*
%TO.N,Net-(D1-Pad2)*%
X194650000Y-96000000D02*
X187765000Y-96000000D01*
%TO.N,Net-(R3-Pad2)*%
X207350000Y-73030000D02*
X213060000Y-78740000D01*
X207350000Y-68580000D02*
X207350000Y-73030000D01*
%TO.N,GND*%
X227000000Y-69000000D02*
X229960000Y-66040000D01*
X227000000Y-81000000D02*
X227000000Y-69000000D01*
X224180000Y-83820000D02*
X227000000Y-81000000D01*
X229960000Y-66040000D02*
X239060000Y-66040000D01*
X213060000Y-83820000D02*
X224180000Y-83820000D01*
%TO.N,Net-(R2-Pad2)*%
X212340000Y-82000000D02*
X213060000Y-81280000D01*
X207350000Y-82000000D02*
X212340000Y-82000000D01*
%TO.N,Net-(R1-Pad2)*%
X210640000Y-86360000D02*
X213060000Y-86360000D01*
X208000000Y-92545786D02*
X208000000Y-89000000D01*
X207350000Y-93195786D02*
X208000000Y-92545786D01*
X207350000Y-96000000D02*
X207350000Y-93195786D01*
X208000000Y-89000000D02*
X210640000Y-86360000D01*
%TD*%
%TA.AperFunction,Conductor*%
%TO.N,GND*%
G36*
X242442121Y-44020002D02*
G01*
X242488614Y-44073658D01*
X242500000Y-44126000D01*
X242500000Y-103874000D01*
X242479998Y-103942121D01*
X242426342Y-103988614D01*
X242374000Y-104000000D01*
X179627055Y-104000000D01*
X179558934Y-103979998D01*
X179512441Y-103926342D01*
X179501059Y-103872950D01*
X179536167Y-99660000D01*
X211921449Y-99660000D01*
X211941622Y-99916326D01*
X212001645Y-100166340D01*
X212100040Y-100403887D01*
X212234384Y-100623116D01*
X212401369Y-100818631D01*
X212596884Y-100985616D01*
X212816113Y-101119960D01*
X212820683Y-101121853D01*
X212820687Y-101121855D01*
X213049087Y-101216461D01*
X213053660Y-101218355D01*
X213140502Y-101239204D01*
X213298861Y-101277223D01*
X213298867Y-101277224D01*
X213303674Y-101278378D01*
X213392965Y-101285405D01*
X213493363Y-101293307D01*
X213493372Y-101293307D01*
X213495820Y-101293500D01*
X213624180Y-101293500D01*
X213626628Y-101293307D01*
X213626637Y-101293307D01*
X213727035Y-101285405D01*
X213816326Y-101278378D01*
X213821133Y-101277224D01*
X213821139Y-101277223D01*
X213979498Y-101239204D01*
X214066340Y-101218355D01*
X214070913Y-101216461D01*
X214299313Y-101121855D01*
X214299317Y-101121853D01*
X214303887Y-101119960D01*
X214523116Y-100985616D01*
X214718631Y-100818631D01*
X214885616Y-100623116D01*
X215019960Y-100403887D01*
X215118355Y-100166340D01*
X215178378Y-99916326D01*
X215198551Y-99660000D01*
X236921449Y-99660000D01*
X236941622Y-99916326D01*
X237001645Y-100166340D01*
X237100040Y-100403887D01*
X237234384Y-100623116D01*
X237401369Y-100818631D01*
X237596884Y-100985616D01*
X237816113Y-101119960D01*
X237820683Y-101121853D01*
X237820687Y-101121855D01*
X238049087Y-101216461D01*
X238053660Y-101218355D01*
X238140502Y-101239204D01*
X238298861Y-101277223D01*
X238298867Y-101277224D01*
X238303674Y-101278378D01*
X238392965Y-101285405D01*
X238493363Y-101293307D01*
X238493372Y-101293307D01*
X238495820Y-101293500D01*
X238624180Y-101293500D01*
X238626628Y-101293307D01*
X238626637Y-101293307D01*
X238727035Y-101285405D01*
X238816326Y-101278378D01*
X238821133Y-101277224D01*
X238821139Y-101277223D01*
X238979498Y-101239204D01*
X239066340Y-101218355D01*
X239070913Y-101216461D01*
X239299313Y-101121855D01*
X239299317Y-101121853D01*
X239303887Y-101119960D01*
X239523116Y-100985616D01*
X239718631Y-100818631D01*
X239885616Y-100623116D01*
X240019960Y-100403887D01*
X240118355Y-100166340D01*
X240178378Y-99916326D01*
X240198551Y-99660000D01*
X240178378Y-99403674D01*
X240118355Y-99153660D01*
X240019960Y-98916113D01*
X239885616Y-98696884D01*
X239718631Y-98501369D01*
X239523116Y-98334384D01*
X239303887Y-98200040D01*
X239299317Y-98198147D01*
X239299313Y-98198145D01*
X239070913Y-98103539D01*
X239070911Y-98103538D01*
X239066340Y-98101645D01*
X238979498Y-98080796D01*
X238821139Y-98042777D01*
X238821133Y-98042776D01*
X238816326Y-98041622D01*
X238727035Y-98034595D01*
X238626637Y-98026693D01*
X238626628Y-98026693D01*
X238624180Y-98026500D01*
X238495820Y-98026500D01*
X238493372Y-98026693D01*
X238493363Y-98026693D01*
X238392965Y-98034595D01*
X238303674Y-98041622D01*
X238298867Y-98042776D01*
X238298861Y-98042777D01*
X238140502Y-98080796D01*
X238053660Y-98101645D01*
X238049089Y-98103538D01*
X238049087Y-98103539D01*
X237820687Y-98198145D01*
X237820683Y-98198147D01*
X237816113Y-98200040D01*
X237596884Y-98334384D01*
X237401369Y-98501369D01*
X237234384Y-98696884D01*
X237100040Y-98916113D01*
X237001645Y-99153660D01*
X236941622Y-99403674D01*
X236921449Y-99660000D01*
X215198551Y-99660000D01*
X215178378Y-99403674D01*
X215118355Y-99153660D01*
X215019960Y-98916113D01*
X214885616Y-98696884D01*
X214718631Y-98501369D01*
X214523116Y-98334384D01*
X214303887Y-98200040D01*
X214299317Y-98198147D01*
X214299313Y-98198145D01*
X214070913Y-98103539D01*
X214070911Y-98103538D01*
X214066340Y-98101645D01*
X213979498Y-98080796D01*
X213821139Y-98042777D01*
X213821133Y-98042776D01*
X213816326Y-98041622D01*
X213727035Y-98034595D01*
X213626637Y-98026693D01*
X213626628Y-98026693D01*
X213624180Y-98026500D01*
X213495820Y-98026500D01*
X213493372Y-98026693D01*
X213493363Y-98026693D01*
X213392965Y-98034595D01*
X213303674Y-98041622D01*
X213298867Y-98042776D01*
X213298861Y-98042777D01*
X213140502Y-98080796D01*
X213053660Y-98101645D01*
X213049089Y-98103538D01*
X213049087Y-98103539D01*
X212820687Y-98198145D01*
X212820683Y-98198147D01*
X212816113Y-98200040D01*
X212596884Y-98334384D01*
X212401369Y-98501369D01*
X212234384Y-98696884D01*
X212100040Y-98916113D01*
X212001645Y-99153660D01*
X211941622Y-99403674D01*
X211921449Y-99660000D01*
X179536167Y-99660000D01*
X179558794Y-96944669D01*
X183817001Y-96944669D01*
X183817371Y-96951490D01*
X183822895Y-97002352D01*
X183826521Y-97017604D01*
X183871676Y-97138054D01*
X183880214Y-97153649D01*
X183956715Y-97255724D01*
X183969276Y-97268285D01*
X184071351Y-97344786D01*
X184086946Y-97353324D01*
X184207394Y-97398478D01*
X184222649Y-97402105D01*
X184273514Y-97407631D01*
X184280328Y-97408000D01*
X184952885Y-97408000D01*
X184968124Y-97403525D01*
X184969329Y-97402135D01*
X184971000Y-97394452D01*
X184971000Y-97389884D01*
X185479000Y-97389884D01*
X185483475Y-97405123D01*
X185484865Y-97406328D01*
X185492548Y-97407999D01*
X186169669Y-97407999D01*
X186176490Y-97407629D01*
X186227352Y-97402105D01*
X186242604Y-97398479D01*
X186363054Y-97353324D01*
X186378649Y-97344786D01*
X186480724Y-97268285D01*
X186493285Y-97255724D01*
X186569786Y-97153649D01*
X186578324Y-97138054D01*
X186599773Y-97080840D01*
X186642415Y-97024075D01*
X186708977Y-96999376D01*
X186778325Y-97014584D01*
X186798240Y-97028126D01*
X186930010Y-97137523D01*
X186954349Y-97157730D01*
X187154322Y-97274584D01*
X187370694Y-97357209D01*
X187375760Y-97358240D01*
X187375761Y-97358240D01*
X187386604Y-97360446D01*
X187597656Y-97403385D01*
X187728324Y-97408176D01*
X187823949Y-97411683D01*
X187823953Y-97411683D01*
X187829113Y-97411872D01*
X187834233Y-97411216D01*
X187834235Y-97411216D01*
X187933668Y-97398478D01*
X188058847Y-97382442D01*
X188063795Y-97380957D01*
X188063802Y-97380956D01*
X188275747Y-97317369D01*
X188280690Y-97315886D01*
X188285565Y-97313498D01*
X188484049Y-97216262D01*
X188484052Y-97216260D01*
X188488684Y-97213991D01*
X188677243Y-97079494D01*
X188841303Y-96916005D01*
X188976458Y-96727917D01*
X188988440Y-96703672D01*
X189036553Y-96651466D01*
X189101397Y-96633500D01*
X193430606Y-96633500D01*
X193498727Y-96653502D01*
X193533819Y-96687229D01*
X193637093Y-96834719D01*
X193643802Y-96844300D01*
X193805700Y-97006198D01*
X193810208Y-97009355D01*
X193810211Y-97009357D01*
X193810821Y-97009784D01*
X193993251Y-97137523D01*
X193998233Y-97139846D01*
X193998238Y-97139849D01*
X194157238Y-97213991D01*
X194200757Y-97234284D01*
X194206065Y-97235706D01*
X194206067Y-97235707D01*
X194416598Y-97292119D01*
X194416600Y-97292119D01*
X194421913Y-97293543D01*
X194650000Y-97313498D01*
X194878087Y-97293543D01*
X194883400Y-97292119D01*
X194883402Y-97292119D01*
X195093933Y-97235707D01*
X195093935Y-97235706D01*
X195099243Y-97234284D01*
X195142762Y-97213991D01*
X195301762Y-97139849D01*
X195301767Y-97139846D01*
X195306749Y-97137523D01*
X195489179Y-97009784D01*
X195489789Y-97009357D01*
X195489792Y-97009355D01*
X195494300Y-97006198D01*
X195656198Y-96844300D01*
X195787523Y-96656749D01*
X195789846Y-96651767D01*
X195789849Y-96651762D01*
X195881961Y-96454225D01*
X195881961Y-96454224D01*
X195884284Y-96449243D01*
X195932970Y-96267548D01*
X195942119Y-96233402D01*
X195942119Y-96233400D01*
X195943543Y-96228087D01*
X195963498Y-96000000D01*
X206036502Y-96000000D01*
X206056457Y-96228087D01*
X206057881Y-96233400D01*
X206057881Y-96233402D01*
X206067031Y-96267548D01*
X206115716Y-96449243D01*
X206118039Y-96454224D01*
X206118039Y-96454225D01*
X206210151Y-96651762D01*
X206210154Y-96651767D01*
X206212477Y-96656749D01*
X206343802Y-96844300D01*
X206505700Y-97006198D01*
X206510208Y-97009355D01*
X206510211Y-97009357D01*
X206510821Y-97009784D01*
X206693251Y-97137523D01*
X206698233Y-97139846D01*
X206698238Y-97139849D01*
X206857238Y-97213991D01*
X206900757Y-97234284D01*
X206906065Y-97235706D01*
X206906067Y-97235707D01*
X207116598Y-97292119D01*
X207116600Y-97292119D01*
X207121913Y-97293543D01*
X207350000Y-97313498D01*
X207578087Y-97293543D01*
X207583400Y-97292119D01*
X207583402Y-97292119D01*
X207793933Y-97235707D01*
X207793935Y-97235706D01*
X207799243Y-97234284D01*
X207842762Y-97213991D01*
X208001762Y-97139849D01*
X208001767Y-97139846D01*
X208006749Y-97137523D01*
X208189179Y-97009784D01*
X208189789Y-97009357D01*
X208189792Y-97009355D01*
X208194300Y-97006198D01*
X208356198Y-96844300D01*
X208487523Y-96656749D01*
X208489846Y-96651767D01*
X208489849Y-96651762D01*
X208581961Y-96454225D01*
X208581961Y-96454224D01*
X208584284Y-96449243D01*
X208632970Y-96267548D01*
X208642119Y-96233402D01*
X208642119Y-96233400D01*
X208643543Y-96228087D01*
X208663498Y-96000000D01*
X208643543Y-95771913D01*
X208635829Y-95743124D01*
X208585707Y-95556067D01*
X208585706Y-95556065D01*
X208584284Y-95550757D01*
X208552101Y-95481739D01*
X208489849Y-95348238D01*
X208489846Y-95348233D01*
X208487523Y-95343251D01*
X208402810Y-95222268D01*
X208359357Y-95160211D01*
X208359355Y-95160208D01*
X208356198Y-95155700D01*
X208194300Y-94993802D01*
X208189792Y-94990645D01*
X208189789Y-94990643D01*
X208037229Y-94883819D01*
X207992901Y-94828362D01*
X207983500Y-94780606D01*
X207983500Y-93510381D01*
X208003502Y-93442260D01*
X208020405Y-93421285D01*
X208392258Y-93049433D01*
X208400537Y-93041899D01*
X208407018Y-93037786D01*
X208453644Y-92988134D01*
X208456398Y-92985293D01*
X208476135Y-92965556D01*
X208478615Y-92962359D01*
X208486320Y-92953337D01*
X208511159Y-92926886D01*
X208516586Y-92921107D01*
X208520405Y-92914161D01*
X208520407Y-92914158D01*
X208526348Y-92903352D01*
X208537199Y-92886833D01*
X208544758Y-92877087D01*
X208549614Y-92870827D01*
X208552759Y-92863558D01*
X208552762Y-92863554D01*
X208567174Y-92830249D01*
X208572391Y-92819599D01*
X208593695Y-92780846D01*
X208598733Y-92761223D01*
X208605137Y-92742520D01*
X208610033Y-92731206D01*
X208610033Y-92731205D01*
X208613181Y-92723931D01*
X208614420Y-92716108D01*
X208614423Y-92716098D01*
X208620099Y-92680262D01*
X208622505Y-92668642D01*
X208631528Y-92633497D01*
X208631528Y-92633496D01*
X208633500Y-92625816D01*
X208633500Y-92605562D01*
X208635051Y-92585851D01*
X208636980Y-92573672D01*
X208638220Y-92565843D01*
X208634059Y-92521824D01*
X208633500Y-92509967D01*
X208633500Y-89314594D01*
X208653502Y-89246473D01*
X208670405Y-89225499D01*
X210865500Y-87030405D01*
X210927812Y-86996379D01*
X210954595Y-86993500D01*
X211993139Y-86993500D01*
X212061260Y-87013502D01*
X212096036Y-87046779D01*
X212156204Y-87131914D01*
X212312009Y-87283692D01*
X212492863Y-87404536D01*
X212498171Y-87406817D01*
X212498172Y-87406817D01*
X212687409Y-87488119D01*
X212687412Y-87488120D01*
X212692712Y-87490397D01*
X212741995Y-87501549D01*
X212757825Y-87505131D01*
X212819851Y-87539675D01*
X212853356Y-87602268D01*
X212847700Y-87673039D01*
X212804681Y-87729518D01*
X212762626Y-87749731D01*
X212758073Y-87750951D01*
X212752375Y-87751930D01*
X212548307Y-87827214D01*
X212361376Y-87938427D01*
X212197842Y-88081842D01*
X212063181Y-88252658D01*
X211961905Y-88445154D01*
X211960192Y-88450671D01*
X211904003Y-88631628D01*
X211897403Y-88652882D01*
X211871837Y-88868887D01*
X211886063Y-89085933D01*
X211887484Y-89091529D01*
X211887485Y-89091534D01*
X211926835Y-89246473D01*
X211939605Y-89296753D01*
X212030668Y-89494285D01*
X212156204Y-89671914D01*
X212312009Y-89823692D01*
X212492863Y-89944536D01*
X212498171Y-89946817D01*
X212498172Y-89946817D01*
X212687409Y-90028119D01*
X212687412Y-90028120D01*
X212692712Y-90030397D01*
X212741995Y-90041549D01*
X212757825Y-90045131D01*
X212819851Y-90079675D01*
X212853356Y-90142268D01*
X212847700Y-90213039D01*
X212804681Y-90269518D01*
X212762626Y-90289731D01*
X212758073Y-90290951D01*
X212752375Y-90291930D01*
X212548307Y-90367214D01*
X212361376Y-90478427D01*
X212197842Y-90621842D01*
X212063181Y-90792658D01*
X211961905Y-90985154D01*
X211897403Y-91192882D01*
X211871837Y-91408887D01*
X211886063Y-91625933D01*
X211887484Y-91631529D01*
X211887485Y-91631534D01*
X211938184Y-91831158D01*
X211939605Y-91836753D01*
X212030668Y-92034285D01*
X212156204Y-92211914D01*
X212312009Y-92363692D01*
X212492863Y-92484536D01*
X212498171Y-92486817D01*
X212498172Y-92486817D01*
X212687409Y-92568119D01*
X212687412Y-92568120D01*
X212692712Y-92570397D01*
X212741995Y-92581549D01*
X212757825Y-92585131D01*
X212819851Y-92619675D01*
X212853356Y-92682268D01*
X212847700Y-92753039D01*
X212804681Y-92809518D01*
X212762626Y-92829731D01*
X212758073Y-92830951D01*
X212752375Y-92831930D01*
X212548307Y-92907214D01*
X212361376Y-93018427D01*
X212197842Y-93161842D01*
X212063181Y-93332658D01*
X211961905Y-93525154D01*
X211897403Y-93732882D01*
X211871837Y-93948887D01*
X211886063Y-94165933D01*
X211887484Y-94171529D01*
X211887485Y-94171534D01*
X211938184Y-94371158D01*
X211939605Y-94376753D01*
X212030668Y-94574285D01*
X212034001Y-94579001D01*
X212123740Y-94705978D01*
X212156204Y-94751914D01*
X212312009Y-94903692D01*
X212492863Y-95024536D01*
X212498171Y-95026817D01*
X212498172Y-95026817D01*
X212656250Y-95094732D01*
X212710944Y-95140000D01*
X212732481Y-95207651D01*
X212714024Y-95276207D01*
X212661433Y-95323901D01*
X212606513Y-95336500D01*
X212336866Y-95336500D01*
X212274684Y-95343255D01*
X212138295Y-95394385D01*
X212021739Y-95481739D01*
X211934385Y-95598295D01*
X211883255Y-95734684D01*
X211876500Y-95796866D01*
X211876500Y-97243134D01*
X211883255Y-97305316D01*
X211934385Y-97441705D01*
X212021739Y-97558261D01*
X212138295Y-97645615D01*
X212274684Y-97696745D01*
X212336866Y-97703500D01*
X213783134Y-97703500D01*
X213845316Y-97696745D01*
X213981705Y-97645615D01*
X214098261Y-97558261D01*
X214185615Y-97441705D01*
X214236745Y-97305316D01*
X214243500Y-97243134D01*
X214243500Y-96488887D01*
X237871837Y-96488887D01*
X237886063Y-96705933D01*
X237887484Y-96711529D01*
X237887485Y-96711534D01*
X237918771Y-96834719D01*
X237939605Y-96916753D01*
X237942022Y-96921996D01*
X237979043Y-97002301D01*
X238030668Y-97114285D01*
X238034001Y-97119001D01*
X238139505Y-97268285D01*
X238156204Y-97291914D01*
X238312009Y-97443692D01*
X238492863Y-97564536D01*
X238498171Y-97566817D01*
X238498172Y-97566817D01*
X238687409Y-97648119D01*
X238687412Y-97648120D01*
X238692712Y-97650397D01*
X238698342Y-97651671D01*
X238796464Y-97673874D01*
X238904860Y-97698402D01*
X238910631Y-97698629D01*
X238910633Y-97698629D01*
X238983620Y-97701496D01*
X239122205Y-97706941D01*
X239337466Y-97675730D01*
X239342930Y-97673875D01*
X239342935Y-97673874D01*
X239537963Y-97607671D01*
X239537968Y-97607669D01*
X239543435Y-97605813D01*
X239733213Y-97499532D01*
X239900446Y-97360446D01*
X240039532Y-97193213D01*
X240139569Y-97014584D01*
X240142989Y-97008478D01*
X240142990Y-97008476D01*
X240145813Y-97003435D01*
X240147669Y-96997968D01*
X240147671Y-96997963D01*
X240213874Y-96802935D01*
X240213875Y-96802930D01*
X240215730Y-96797466D01*
X240246941Y-96582205D01*
X240248570Y-96520000D01*
X240228667Y-96303400D01*
X240169626Y-96094055D01*
X240073423Y-95898974D01*
X239956609Y-95742540D01*
X239946733Y-95729315D01*
X239946732Y-95729314D01*
X239943280Y-95724691D01*
X239815641Y-95606703D01*
X239787796Y-95580963D01*
X239787793Y-95580961D01*
X239783556Y-95577044D01*
X239599599Y-95460976D01*
X239397572Y-95380376D01*
X239366453Y-95374186D01*
X239303544Y-95341278D01*
X239268412Y-95279583D01*
X239272212Y-95208689D01*
X239313738Y-95151103D01*
X239350534Y-95131294D01*
X239537963Y-95067671D01*
X239537968Y-95067669D01*
X239543435Y-95065813D01*
X239562158Y-95055328D01*
X239665150Y-94997649D01*
X239733213Y-94959532D01*
X239900446Y-94820446D01*
X240039532Y-94653213D01*
X240145813Y-94463435D01*
X240147669Y-94457968D01*
X240147671Y-94457963D01*
X240213874Y-94262935D01*
X240213875Y-94262930D01*
X240215730Y-94257466D01*
X240246941Y-94042205D01*
X240248570Y-93980000D01*
X240228667Y-93763400D01*
X240169626Y-93554055D01*
X240073423Y-93358974D01*
X239969458Y-93219747D01*
X239946733Y-93189315D01*
X239946732Y-93189314D01*
X239943280Y-93184691D01*
X239914446Y-93158037D01*
X239787796Y-93040963D01*
X239787793Y-93040961D01*
X239783556Y-93037044D01*
X239599599Y-92920976D01*
X239397572Y-92840376D01*
X239366453Y-92834186D01*
X239303544Y-92801278D01*
X239268412Y-92739583D01*
X239272212Y-92668689D01*
X239313738Y-92611103D01*
X239350534Y-92591294D01*
X239537963Y-92527671D01*
X239537968Y-92527669D01*
X239543435Y-92525813D01*
X239561117Y-92515911D01*
X239622872Y-92481326D01*
X239733213Y-92419532D01*
X239900446Y-92280446D01*
X240039532Y-92113213D01*
X240145813Y-91923435D01*
X240147669Y-91917968D01*
X240147671Y-91917963D01*
X240213874Y-91722935D01*
X240213875Y-91722930D01*
X240215730Y-91717466D01*
X240246941Y-91502205D01*
X240248570Y-91440000D01*
X240228667Y-91223400D01*
X240169626Y-91014055D01*
X240073423Y-90818974D01*
X239943280Y-90644691D01*
X239783556Y-90497044D01*
X239599599Y-90380976D01*
X239397572Y-90300376D01*
X239366453Y-90294186D01*
X239303544Y-90261278D01*
X239268412Y-90199583D01*
X239272212Y-90128689D01*
X239313738Y-90071103D01*
X239350534Y-90051294D01*
X239537963Y-89987671D01*
X239537968Y-89987669D01*
X239543435Y-89985813D01*
X239733213Y-89879532D01*
X239900446Y-89740446D01*
X240039532Y-89573213D01*
X240145813Y-89383435D01*
X240147669Y-89377968D01*
X240147671Y-89377963D01*
X240213874Y-89182935D01*
X240213875Y-89182930D01*
X240215730Y-89177466D01*
X240246941Y-88962205D01*
X240248570Y-88900000D01*
X240228667Y-88683400D01*
X240226287Y-88674959D01*
X240171195Y-88479619D01*
X240169626Y-88474055D01*
X240073423Y-88278974D01*
X239943280Y-88104691D01*
X239783556Y-87957044D01*
X239599599Y-87840976D01*
X239397572Y-87760376D01*
X239366453Y-87754186D01*
X239303544Y-87721278D01*
X239268412Y-87659583D01*
X239272212Y-87588689D01*
X239313738Y-87531103D01*
X239350534Y-87511294D01*
X239537963Y-87447671D01*
X239537968Y-87447669D01*
X239543435Y-87445813D01*
X239733213Y-87339532D01*
X239900446Y-87200446D01*
X240039532Y-87033213D01*
X240145813Y-86843435D01*
X240147669Y-86837968D01*
X240147671Y-86837963D01*
X240213874Y-86642935D01*
X240213875Y-86642930D01*
X240215730Y-86637466D01*
X240246941Y-86422205D01*
X240248570Y-86360000D01*
X240228667Y-86143400D01*
X240169626Y-85934055D01*
X240082708Y-85757802D01*
X240075978Y-85744155D01*
X240073423Y-85738974D01*
X240064480Y-85726997D01*
X239946733Y-85569315D01*
X239946732Y-85569314D01*
X239943280Y-85564691D01*
X239783556Y-85417044D01*
X239599599Y-85300976D01*
X239397572Y-85220376D01*
X239366453Y-85214186D01*
X239303544Y-85181278D01*
X239268412Y-85119583D01*
X239272212Y-85048689D01*
X239313738Y-84991103D01*
X239350534Y-84971294D01*
X239537963Y-84907671D01*
X239537968Y-84907669D01*
X239543435Y-84905813D01*
X239549296Y-84902531D01*
X239684158Y-84827004D01*
X239733213Y-84799532D01*
X239900446Y-84660446D01*
X240039532Y-84493213D01*
X240145813Y-84303435D01*
X240147669Y-84297968D01*
X240147671Y-84297963D01*
X240213874Y-84102935D01*
X240213875Y-84102930D01*
X240215730Y-84097466D01*
X240246941Y-83882205D01*
X240248570Y-83820000D01*
X240228667Y-83603400D01*
X240169626Y-83394055D01*
X240073423Y-83198974D01*
X240027536Y-83137523D01*
X239946733Y-83029315D01*
X239946732Y-83029314D01*
X239943280Y-83024691D01*
X239939044Y-83020775D01*
X239787796Y-82880963D01*
X239787793Y-82880961D01*
X239783556Y-82877044D01*
X239599599Y-82760976D01*
X239397572Y-82680376D01*
X239366453Y-82674186D01*
X239303544Y-82641278D01*
X239268412Y-82579583D01*
X239272212Y-82508689D01*
X239313738Y-82451103D01*
X239350534Y-82431294D01*
X239537963Y-82367671D01*
X239537968Y-82367669D01*
X239543435Y-82365813D01*
X239733213Y-82259532D01*
X239900446Y-82120446D01*
X240039532Y-81953213D01*
X240145813Y-81763435D01*
X240147669Y-81757968D01*
X240147671Y-81757963D01*
X240213874Y-81562935D01*
X240213875Y-81562930D01*
X240215730Y-81557466D01*
X240246941Y-81342205D01*
X240248570Y-81280000D01*
X240228667Y-81063400D01*
X240226391Y-81055328D01*
X240193868Y-80940012D01*
X240169626Y-80854055D01*
X240073423Y-80658974D01*
X240049366Y-80626757D01*
X239946733Y-80489315D01*
X239946732Y-80489314D01*
X239943280Y-80484691D01*
X239783556Y-80337044D01*
X239599599Y-80220976D01*
X239397572Y-80140376D01*
X239366453Y-80134186D01*
X239303544Y-80101278D01*
X239268412Y-80039583D01*
X239272212Y-79968689D01*
X239313738Y-79911103D01*
X239350534Y-79891294D01*
X239537963Y-79827671D01*
X239537968Y-79827669D01*
X239543435Y-79825813D01*
X239733213Y-79719532D01*
X239900446Y-79580446D01*
X240039532Y-79413213D01*
X240145813Y-79223435D01*
X240147669Y-79217968D01*
X240147671Y-79217963D01*
X240213874Y-79022935D01*
X240213875Y-79022930D01*
X240215730Y-79017466D01*
X240246941Y-78802205D01*
X240248570Y-78740000D01*
X240228667Y-78523400D01*
X240215848Y-78477945D01*
X240171195Y-78319619D01*
X240169626Y-78314055D01*
X240073423Y-78118974D01*
X239943280Y-77944691D01*
X239783556Y-77797044D01*
X239599599Y-77680976D01*
X239397572Y-77600376D01*
X239366453Y-77594186D01*
X239303544Y-77561278D01*
X239268412Y-77499583D01*
X239272212Y-77428689D01*
X239313738Y-77371103D01*
X239350534Y-77351294D01*
X239537963Y-77287671D01*
X239537968Y-77287669D01*
X239543435Y-77285813D01*
X239733213Y-77179532D01*
X239900446Y-77040446D01*
X240039532Y-76873213D01*
X240145813Y-76683435D01*
X240147669Y-76677968D01*
X240147671Y-76677963D01*
X240213874Y-76482935D01*
X240213875Y-76482930D01*
X240215730Y-76477466D01*
X240246941Y-76262205D01*
X240248570Y-76200000D01*
X240228667Y-75983400D01*
X240169626Y-75774055D01*
X240073423Y-75578974D01*
X239943280Y-75404691D01*
X239783556Y-75257044D01*
X239599599Y-75140976D01*
X239397572Y-75060376D01*
X239366453Y-75054186D01*
X239303544Y-75021278D01*
X239268412Y-74959583D01*
X239272212Y-74888689D01*
X239313738Y-74831103D01*
X239350534Y-74811294D01*
X239537963Y-74747671D01*
X239537968Y-74747669D01*
X239543435Y-74745813D01*
X239733213Y-74639532D01*
X239900446Y-74500446D01*
X240039532Y-74333213D01*
X240145813Y-74143435D01*
X240147669Y-74137968D01*
X240147671Y-74137963D01*
X240213874Y-73942935D01*
X240213875Y-73942930D01*
X240215730Y-73937466D01*
X240246941Y-73722205D01*
X240248570Y-73660000D01*
X240228667Y-73443400D01*
X240169626Y-73234055D01*
X240073423Y-73038974D01*
X239943280Y-72864691D01*
X239783556Y-72717044D01*
X239599599Y-72600976D01*
X239397572Y-72520376D01*
X239366453Y-72514186D01*
X239303544Y-72481278D01*
X239268412Y-72419583D01*
X239272212Y-72348689D01*
X239313738Y-72291103D01*
X239350534Y-72271294D01*
X239537963Y-72207671D01*
X239537968Y-72207669D01*
X239543435Y-72205813D01*
X239733213Y-72099532D01*
X239900446Y-71960446D01*
X240039532Y-71793213D01*
X240145813Y-71603435D01*
X240147669Y-71597968D01*
X240147671Y-71597963D01*
X240213874Y-71402935D01*
X240213875Y-71402930D01*
X240215730Y-71397466D01*
X240246941Y-71182205D01*
X240248570Y-71120000D01*
X240228667Y-70903400D01*
X240169626Y-70694055D01*
X240073423Y-70498974D01*
X239943280Y-70324691D01*
X239783556Y-70177044D01*
X239599599Y-70060976D01*
X239397572Y-69980376D01*
X239366453Y-69974186D01*
X239303544Y-69941278D01*
X239268412Y-69879583D01*
X239272212Y-69808689D01*
X239313738Y-69751103D01*
X239350534Y-69731294D01*
X239537963Y-69667671D01*
X239537968Y-69667669D01*
X239543435Y-69665813D01*
X239554719Y-69659494D01*
X239653676Y-69604075D01*
X239733213Y-69559532D01*
X239900446Y-69420446D01*
X240039532Y-69253213D01*
X240134653Y-69083363D01*
X240142989Y-69068478D01*
X240142990Y-69068476D01*
X240145813Y-69063435D01*
X240147669Y-69057968D01*
X240147671Y-69057963D01*
X240213874Y-68862935D01*
X240213875Y-68862930D01*
X240215730Y-68857466D01*
X240246941Y-68642205D01*
X240248570Y-68580000D01*
X240228667Y-68363400D01*
X240225428Y-68351913D01*
X240171195Y-68159619D01*
X240169626Y-68154055D01*
X240073423Y-67958974D01*
X240050472Y-67928238D01*
X239946733Y-67789315D01*
X239946732Y-67789314D01*
X239943280Y-67784691D01*
X239870772Y-67717665D01*
X239787796Y-67640963D01*
X239787793Y-67640961D01*
X239783556Y-67637044D01*
X239599599Y-67520976D01*
X239397572Y-67440376D01*
X239365473Y-67433991D01*
X239302564Y-67401083D01*
X239267432Y-67339388D01*
X239271232Y-67268493D01*
X239312758Y-67210907D01*
X239349554Y-67191099D01*
X239537760Y-67127212D01*
X239548272Y-67122531D01*
X239683135Y-67047004D01*
X239692999Y-67036926D01*
X239690044Y-67029255D01*
X239072811Y-66412021D01*
X239058868Y-66404408D01*
X239057034Y-66404539D01*
X239050420Y-66408790D01*
X238435184Y-67024027D01*
X238428991Y-67035369D01*
X238438872Y-67047857D01*
X238488304Y-67080887D01*
X238498407Y-67086373D01*
X238687560Y-67167640D01*
X238698501Y-67171195D01*
X238758865Y-67184854D01*
X238820891Y-67219397D01*
X238854395Y-67281991D01*
X238848741Y-67352762D01*
X238805722Y-67409241D01*
X238763010Y-67427070D01*
X238763649Y-67429456D01*
X238758066Y-67430952D01*
X238752375Y-67431930D01*
X238548307Y-67507214D01*
X238361376Y-67618427D01*
X238197842Y-67761842D01*
X238194270Y-67766373D01*
X238074151Y-67918743D01*
X238063181Y-67932658D01*
X237961905Y-68125154D01*
X237960192Y-68130671D01*
X237900059Y-68324329D01*
X237897403Y-68332882D01*
X237871837Y-68548887D01*
X237886063Y-68765933D01*
X237887484Y-68771529D01*
X237887485Y-68771534D01*
X237936412Y-68964181D01*
X237939605Y-68976753D01*
X237942022Y-68981996D01*
X237981891Y-69068478D01*
X238030668Y-69174285D01*
X238034001Y-69179001D01*
X238128078Y-69312116D01*
X238156204Y-69351914D01*
X238160346Y-69355949D01*
X238213317Y-69407551D01*
X238312009Y-69503692D01*
X238492863Y-69624536D01*
X238498171Y-69626817D01*
X238498172Y-69626817D01*
X238687409Y-69708119D01*
X238687412Y-69708120D01*
X238692712Y-69710397D01*
X238741995Y-69721549D01*
X238757825Y-69725131D01*
X238819851Y-69759675D01*
X238853356Y-69822268D01*
X238847700Y-69893039D01*
X238804681Y-69949518D01*
X238762626Y-69969731D01*
X238758073Y-69970951D01*
X238752375Y-69971930D01*
X238548307Y-70047214D01*
X238361376Y-70158427D01*
X238197842Y-70301842D01*
X238063181Y-70472658D01*
X237961905Y-70665154D01*
X237897403Y-70872882D01*
X237871837Y-71088887D01*
X237886063Y-71305933D01*
X237887484Y-71311529D01*
X237887485Y-71311534D01*
X237938184Y-71511158D01*
X237939605Y-71516753D01*
X237942022Y-71521996D01*
X237966450Y-71574984D01*
X238030668Y-71714285D01*
X238034001Y-71719001D01*
X238072519Y-71773502D01*
X238156204Y-71891914D01*
X238312009Y-72043692D01*
X238492863Y-72164536D01*
X238498171Y-72166817D01*
X238498172Y-72166817D01*
X238687409Y-72248119D01*
X238687412Y-72248120D01*
X238692712Y-72250397D01*
X238741995Y-72261549D01*
X238757825Y-72265131D01*
X238819851Y-72299675D01*
X238853356Y-72362268D01*
X238847700Y-72433039D01*
X238804681Y-72489518D01*
X238762626Y-72509731D01*
X238758073Y-72510951D01*
X238752375Y-72511930D01*
X238548307Y-72587214D01*
X238361376Y-72698427D01*
X238197842Y-72841842D01*
X238194270Y-72846373D01*
X238090633Y-72977836D01*
X238063181Y-73012658D01*
X238060493Y-73017767D01*
X238027877Y-73079760D01*
X237961905Y-73205154D01*
X237960192Y-73210671D01*
X237908175Y-73378192D01*
X237897403Y-73412882D01*
X237871837Y-73628887D01*
X237886063Y-73845933D01*
X237887484Y-73851529D01*
X237887485Y-73851534D01*
X237938184Y-74051158D01*
X237939605Y-74056753D01*
X238030668Y-74254285D01*
X238156204Y-74431914D01*
X238312009Y-74583692D01*
X238492863Y-74704536D01*
X238498171Y-74706817D01*
X238498172Y-74706817D01*
X238687409Y-74788119D01*
X238687412Y-74788120D01*
X238692712Y-74790397D01*
X238741995Y-74801549D01*
X238757825Y-74805131D01*
X238819851Y-74839675D01*
X238853356Y-74902268D01*
X238847700Y-74973039D01*
X238804681Y-75029518D01*
X238762626Y-75049731D01*
X238758073Y-75050951D01*
X238752375Y-75051930D01*
X238548307Y-75127214D01*
X238361376Y-75238427D01*
X238197842Y-75381842D01*
X238063181Y-75552658D01*
X237961905Y-75745154D01*
X237897403Y-75952882D01*
X237871837Y-76168887D01*
X237886063Y-76385933D01*
X237887484Y-76391529D01*
X237887485Y-76391534D01*
X237912468Y-76489902D01*
X237939605Y-76596753D01*
X238030668Y-76794285D01*
X238156204Y-76971914D01*
X238312009Y-77123692D01*
X238492863Y-77244536D01*
X238498171Y-77246817D01*
X238498172Y-77246817D01*
X238687409Y-77328119D01*
X238687412Y-77328120D01*
X238692712Y-77330397D01*
X238741995Y-77341549D01*
X238757825Y-77345131D01*
X238819851Y-77379675D01*
X238853356Y-77442268D01*
X238847700Y-77513039D01*
X238804681Y-77569518D01*
X238762626Y-77589731D01*
X238758073Y-77590951D01*
X238752375Y-77591930D01*
X238548307Y-77667214D01*
X238361376Y-77778427D01*
X238197842Y-77921842D01*
X238063181Y-78092658D01*
X237961905Y-78285154D01*
X237960192Y-78290671D01*
X237916257Y-78432164D01*
X237897403Y-78492882D01*
X237871837Y-78708887D01*
X237886063Y-78925933D01*
X237887484Y-78931529D01*
X237887485Y-78931534D01*
X237938184Y-79131158D01*
X237939605Y-79136753D01*
X238030668Y-79334285D01*
X238156204Y-79511914D01*
X238312009Y-79663692D01*
X238492863Y-79784536D01*
X238498171Y-79786817D01*
X238498172Y-79786817D01*
X238687409Y-79868119D01*
X238687412Y-79868120D01*
X238692712Y-79870397D01*
X238741995Y-79881549D01*
X238757825Y-79885131D01*
X238819851Y-79919675D01*
X238853356Y-79982268D01*
X238847700Y-80053039D01*
X238804681Y-80109518D01*
X238762626Y-80129731D01*
X238758073Y-80130951D01*
X238752375Y-80131930D01*
X238548307Y-80207214D01*
X238361376Y-80318427D01*
X238197842Y-80461842D01*
X238194270Y-80466373D01*
X238080952Y-80610116D01*
X238063181Y-80632658D01*
X237961905Y-80825154D01*
X237960192Y-80830671D01*
X237908328Y-80997699D01*
X237897403Y-81032882D01*
X237871837Y-81248887D01*
X237886063Y-81465933D01*
X237887484Y-81471529D01*
X237887485Y-81471534D01*
X237938184Y-81671158D01*
X237939605Y-81676753D01*
X238030668Y-81874285D01*
X238156204Y-82051914D01*
X238312009Y-82203692D01*
X238492863Y-82324536D01*
X238498171Y-82326817D01*
X238498172Y-82326817D01*
X238687409Y-82408119D01*
X238687412Y-82408120D01*
X238692712Y-82410397D01*
X238741995Y-82421549D01*
X238757825Y-82425131D01*
X238819851Y-82459675D01*
X238853356Y-82522268D01*
X238847700Y-82593039D01*
X238804681Y-82649518D01*
X238762626Y-82669731D01*
X238758073Y-82670951D01*
X238752375Y-82671930D01*
X238548307Y-82747214D01*
X238361376Y-82858427D01*
X238197842Y-83001842D01*
X238194270Y-83006373D01*
X238072892Y-83160340D01*
X238063181Y-83172658D01*
X238060493Y-83177767D01*
X238030758Y-83234284D01*
X237961905Y-83365154D01*
X237897403Y-83572882D01*
X237871837Y-83788887D01*
X237886063Y-84005933D01*
X237887484Y-84011529D01*
X237887485Y-84011534D01*
X237931390Y-84184408D01*
X237939605Y-84216753D01*
X238030668Y-84414285D01*
X238156204Y-84591914D01*
X238312009Y-84743692D01*
X238492863Y-84864536D01*
X238498171Y-84866817D01*
X238498172Y-84866817D01*
X238687409Y-84948119D01*
X238687412Y-84948120D01*
X238692712Y-84950397D01*
X238741995Y-84961549D01*
X238757825Y-84965131D01*
X238819851Y-84999675D01*
X238853356Y-85062268D01*
X238847700Y-85133039D01*
X238804681Y-85189518D01*
X238762626Y-85209731D01*
X238758073Y-85210951D01*
X238752375Y-85211930D01*
X238548307Y-85287214D01*
X238361376Y-85398427D01*
X238197842Y-85541842D01*
X238063181Y-85712658D01*
X238060493Y-85717767D01*
X238049982Y-85737745D01*
X237961905Y-85905154D01*
X237897403Y-86112882D01*
X237871837Y-86328887D01*
X237886063Y-86545933D01*
X237887484Y-86551529D01*
X237887485Y-86551534D01*
X237938184Y-86751158D01*
X237939605Y-86756753D01*
X238030668Y-86954285D01*
X238034001Y-86959001D01*
X238072519Y-87013502D01*
X238156204Y-87131914D01*
X238312009Y-87283692D01*
X238492863Y-87404536D01*
X238498171Y-87406817D01*
X238498172Y-87406817D01*
X238687409Y-87488119D01*
X238687412Y-87488120D01*
X238692712Y-87490397D01*
X238741995Y-87501549D01*
X238757825Y-87505131D01*
X238819851Y-87539675D01*
X238853356Y-87602268D01*
X238847700Y-87673039D01*
X238804681Y-87729518D01*
X238762626Y-87749731D01*
X238758073Y-87750951D01*
X238752375Y-87751930D01*
X238548307Y-87827214D01*
X238361376Y-87938427D01*
X238197842Y-88081842D01*
X238063181Y-88252658D01*
X237961905Y-88445154D01*
X237960192Y-88450671D01*
X237904003Y-88631628D01*
X237897403Y-88652882D01*
X237871837Y-88868887D01*
X237886063Y-89085933D01*
X237887484Y-89091529D01*
X237887485Y-89091534D01*
X237926835Y-89246473D01*
X237939605Y-89296753D01*
X238030668Y-89494285D01*
X238156204Y-89671914D01*
X238312009Y-89823692D01*
X238492863Y-89944536D01*
X238498171Y-89946817D01*
X238498172Y-89946817D01*
X238687409Y-90028119D01*
X238687412Y-90028120D01*
X238692712Y-90030397D01*
X238741995Y-90041549D01*
X238757825Y-90045131D01*
X238819851Y-90079675D01*
X238853356Y-90142268D01*
X238847700Y-90213039D01*
X238804681Y-90269518D01*
X238762626Y-90289731D01*
X238758073Y-90290951D01*
X238752375Y-90291930D01*
X238548307Y-90367214D01*
X238361376Y-90478427D01*
X238197842Y-90621842D01*
X238063181Y-90792658D01*
X237961905Y-90985154D01*
X237897403Y-91192882D01*
X237871837Y-91408887D01*
X237886063Y-91625933D01*
X237887484Y-91631529D01*
X237887485Y-91631534D01*
X237938184Y-91831158D01*
X237939605Y-91836753D01*
X238030668Y-92034285D01*
X238156204Y-92211914D01*
X238312009Y-92363692D01*
X238492863Y-92484536D01*
X238498171Y-92486817D01*
X238498172Y-92486817D01*
X238687409Y-92568119D01*
X238687412Y-92568120D01*
X238692712Y-92570397D01*
X238741995Y-92581549D01*
X238757825Y-92585131D01*
X238819851Y-92619675D01*
X238853356Y-92682268D01*
X238847700Y-92753039D01*
X238804681Y-92809518D01*
X238762626Y-92829731D01*
X238758073Y-92830951D01*
X238752375Y-92831930D01*
X238548307Y-92907214D01*
X238361376Y-93018427D01*
X238197842Y-93161842D01*
X238063181Y-93332658D01*
X237961905Y-93525154D01*
X237897403Y-93732882D01*
X237871837Y-93948887D01*
X237886063Y-94165933D01*
X237887484Y-94171529D01*
X237887485Y-94171534D01*
X237938184Y-94371158D01*
X237939605Y-94376753D01*
X238030668Y-94574285D01*
X238034001Y-94579001D01*
X238123740Y-94705978D01*
X238156204Y-94751914D01*
X238312009Y-94903692D01*
X238492863Y-95024536D01*
X238498171Y-95026817D01*
X238498172Y-95026817D01*
X238687409Y-95108119D01*
X238687412Y-95108120D01*
X238692712Y-95110397D01*
X238741995Y-95121549D01*
X238757825Y-95125131D01*
X238819851Y-95159675D01*
X238853356Y-95222268D01*
X238847700Y-95293039D01*
X238804681Y-95349518D01*
X238762626Y-95369731D01*
X238758073Y-95370951D01*
X238752375Y-95371930D01*
X238548307Y-95447214D01*
X238361376Y-95558427D01*
X238197842Y-95701842D01*
X238194270Y-95706373D01*
X238163031Y-95746000D01*
X238063181Y-95872658D01*
X237961905Y-96065154D01*
X237960192Y-96070671D01*
X237901877Y-96258475D01*
X237897403Y-96272882D01*
X237871837Y-96488887D01*
X214243500Y-96488887D01*
X214243500Y-95796866D01*
X214236745Y-95734684D01*
X214185615Y-95598295D01*
X214098261Y-95481739D01*
X213981705Y-95394385D01*
X213845316Y-95343255D01*
X213783134Y-95336500D01*
X213509187Y-95336500D01*
X213441066Y-95316498D01*
X213394573Y-95262842D01*
X213384469Y-95192568D01*
X213413963Y-95127988D01*
X213468684Y-95091187D01*
X213543435Y-95065813D01*
X213562158Y-95055328D01*
X213665150Y-94997649D01*
X213733213Y-94959532D01*
X213900446Y-94820446D01*
X214039532Y-94653213D01*
X214145813Y-94463435D01*
X214147669Y-94457968D01*
X214147671Y-94457963D01*
X214213874Y-94262935D01*
X214213875Y-94262930D01*
X214215730Y-94257466D01*
X214246941Y-94042205D01*
X214248570Y-93980000D01*
X214228667Y-93763400D01*
X214169626Y-93554055D01*
X214073423Y-93358974D01*
X213969458Y-93219747D01*
X213946733Y-93189315D01*
X213946732Y-93189314D01*
X213943280Y-93184691D01*
X213914446Y-93158037D01*
X213787796Y-93040963D01*
X213787793Y-93040961D01*
X213783556Y-93037044D01*
X213599599Y-92920976D01*
X213397572Y-92840376D01*
X213366453Y-92834186D01*
X213303544Y-92801278D01*
X213268412Y-92739583D01*
X213272212Y-92668689D01*
X213313738Y-92611103D01*
X213350534Y-92591294D01*
X213537963Y-92527671D01*
X213537968Y-92527669D01*
X213543435Y-92525813D01*
X213561117Y-92515911D01*
X213622872Y-92481326D01*
X213733213Y-92419532D01*
X213900446Y-92280446D01*
X214039532Y-92113213D01*
X214145813Y-91923435D01*
X214147669Y-91917968D01*
X214147671Y-91917963D01*
X214213874Y-91722935D01*
X214213875Y-91722930D01*
X214215730Y-91717466D01*
X214246941Y-91502205D01*
X214248570Y-91440000D01*
X214228667Y-91223400D01*
X214169626Y-91014055D01*
X214073423Y-90818974D01*
X213943280Y-90644691D01*
X213783556Y-90497044D01*
X213599599Y-90380976D01*
X213397572Y-90300376D01*
X213366453Y-90294186D01*
X213303544Y-90261278D01*
X213268412Y-90199583D01*
X213272212Y-90128689D01*
X213313738Y-90071103D01*
X213350534Y-90051294D01*
X213537963Y-89987671D01*
X213537968Y-89987669D01*
X213543435Y-89985813D01*
X213733213Y-89879532D01*
X213900446Y-89740446D01*
X214039532Y-89573213D01*
X214145813Y-89383435D01*
X214147669Y-89377968D01*
X214147671Y-89377963D01*
X214213874Y-89182935D01*
X214213875Y-89182930D01*
X214215730Y-89177466D01*
X214246941Y-88962205D01*
X214248570Y-88900000D01*
X214228667Y-88683400D01*
X214226287Y-88674959D01*
X214171195Y-88479619D01*
X214169626Y-88474055D01*
X214073423Y-88278974D01*
X213943280Y-88104691D01*
X213783556Y-87957044D01*
X213599599Y-87840976D01*
X213397572Y-87760376D01*
X213366453Y-87754186D01*
X213303544Y-87721278D01*
X213268412Y-87659583D01*
X213272212Y-87588689D01*
X213313738Y-87531103D01*
X213350534Y-87511294D01*
X213537963Y-87447671D01*
X213537968Y-87447669D01*
X213543435Y-87445813D01*
X213733213Y-87339532D01*
X213900446Y-87200446D01*
X214039532Y-87033213D01*
X214145813Y-86843435D01*
X214147669Y-86837968D01*
X214147671Y-86837963D01*
X214213874Y-86642935D01*
X214213875Y-86642930D01*
X214215730Y-86637466D01*
X214246941Y-86422205D01*
X214248570Y-86360000D01*
X214228667Y-86143400D01*
X214169626Y-85934055D01*
X214082708Y-85757802D01*
X214075978Y-85744155D01*
X214073423Y-85738974D01*
X214064480Y-85726997D01*
X213946733Y-85569315D01*
X213946732Y-85569314D01*
X213943280Y-85564691D01*
X213783556Y-85417044D01*
X213599599Y-85300976D01*
X213397572Y-85220376D01*
X213365473Y-85213991D01*
X213302564Y-85181083D01*
X213267432Y-85119388D01*
X213271232Y-85048493D01*
X213312758Y-84990907D01*
X213349554Y-84971099D01*
X213537760Y-84907212D01*
X213548272Y-84902531D01*
X213683135Y-84827004D01*
X213692999Y-84816926D01*
X213690044Y-84809255D01*
X213072811Y-84192021D01*
X213058868Y-84184408D01*
X213057034Y-84184539D01*
X213050420Y-84188790D01*
X212435184Y-84804027D01*
X212428991Y-84815369D01*
X212438872Y-84827857D01*
X212488304Y-84860887D01*
X212498407Y-84866373D01*
X212687560Y-84947640D01*
X212698501Y-84951195D01*
X212758865Y-84964854D01*
X212820891Y-84999397D01*
X212854395Y-85061991D01*
X212848741Y-85132762D01*
X212805722Y-85189241D01*
X212763010Y-85207070D01*
X212763649Y-85209456D01*
X212758066Y-85210952D01*
X212752375Y-85211930D01*
X212548307Y-85287214D01*
X212361376Y-85398427D01*
X212197842Y-85541842D01*
X212194270Y-85546373D01*
X212090104Y-85678506D01*
X212032222Y-85719619D01*
X211991154Y-85726500D01*
X210718767Y-85726500D01*
X210707584Y-85725973D01*
X210700091Y-85724298D01*
X210692165Y-85724547D01*
X210692164Y-85724547D01*
X210632001Y-85726438D01*
X210628043Y-85726500D01*
X210600144Y-85726500D01*
X210596154Y-85727004D01*
X210584320Y-85727936D01*
X210540111Y-85729326D01*
X210532497Y-85731538D01*
X210532492Y-85731539D01*
X210520659Y-85734977D01*
X210501296Y-85738988D01*
X210481203Y-85741526D01*
X210473836Y-85744443D01*
X210473831Y-85744444D01*
X210440092Y-85757802D01*
X210428865Y-85761646D01*
X210386407Y-85773982D01*
X210379581Y-85778019D01*
X210368972Y-85784293D01*
X210351224Y-85792988D01*
X210332383Y-85800448D01*
X210325967Y-85805110D01*
X210325966Y-85805110D01*
X210296613Y-85826436D01*
X210286693Y-85832952D01*
X210255465Y-85851420D01*
X210255462Y-85851422D01*
X210248638Y-85855458D01*
X210234317Y-85869779D01*
X210219284Y-85882619D01*
X210202893Y-85894528D01*
X210174702Y-85928605D01*
X210166712Y-85937384D01*
X207607747Y-88496348D01*
X207599461Y-88503888D01*
X207592982Y-88508000D01*
X207587557Y-88513777D01*
X207546357Y-88557651D01*
X207543602Y-88560493D01*
X207523865Y-88580230D01*
X207521385Y-88583427D01*
X207513682Y-88592447D01*
X207483414Y-88624679D01*
X207479595Y-88631625D01*
X207479593Y-88631628D01*
X207473652Y-88642434D01*
X207462801Y-88658953D01*
X207450386Y-88674959D01*
X207447241Y-88682228D01*
X207447238Y-88682232D01*
X207432826Y-88715537D01*
X207427609Y-88726187D01*
X207406305Y-88764940D01*
X207404334Y-88772615D01*
X207404334Y-88772616D01*
X207401267Y-88784562D01*
X207394863Y-88803266D01*
X207386819Y-88821855D01*
X207385580Y-88829678D01*
X207385577Y-88829688D01*
X207379901Y-88865524D01*
X207377495Y-88877144D01*
X207366500Y-88919970D01*
X207366500Y-88940224D01*
X207364949Y-88959934D01*
X207361780Y-88979943D01*
X207362526Y-88987835D01*
X207365941Y-89023961D01*
X207366500Y-89035819D01*
X207366500Y-92231191D01*
X207346498Y-92299312D01*
X207329595Y-92320287D01*
X206957742Y-92692139D01*
X206949463Y-92699673D01*
X206942982Y-92703786D01*
X206924065Y-92723931D01*
X206896357Y-92753437D01*
X206893602Y-92756279D01*
X206873865Y-92776016D01*
X206871385Y-92779213D01*
X206863682Y-92788233D01*
X206833414Y-92820465D01*
X206829595Y-92827411D01*
X206829593Y-92827414D01*
X206823652Y-92838220D01*
X206812801Y-92854739D01*
X206800386Y-92870745D01*
X206797241Y-92878014D01*
X206797238Y-92878018D01*
X206782826Y-92911323D01*
X206777609Y-92921973D01*
X206756305Y-92960726D01*
X206754334Y-92968401D01*
X206754334Y-92968402D01*
X206751267Y-92980348D01*
X206744863Y-92999052D01*
X206736819Y-93017641D01*
X206735580Y-93025464D01*
X206735577Y-93025474D01*
X206729901Y-93061310D01*
X206727495Y-93072930D01*
X206716500Y-93115756D01*
X206716500Y-93136010D01*
X206714949Y-93155720D01*
X206711780Y-93175729D01*
X206712526Y-93183621D01*
X206715941Y-93219747D01*
X206716500Y-93231605D01*
X206716500Y-94780606D01*
X206696498Y-94848727D01*
X206662771Y-94883819D01*
X206510211Y-94990643D01*
X206510208Y-94990645D01*
X206505700Y-94993802D01*
X206343802Y-95155700D01*
X206340645Y-95160208D01*
X206340643Y-95160211D01*
X206297190Y-95222268D01*
X206212477Y-95343251D01*
X206210154Y-95348233D01*
X206210151Y-95348238D01*
X206147899Y-95481739D01*
X206115716Y-95550757D01*
X206114294Y-95556065D01*
X206114293Y-95556067D01*
X206064171Y-95743124D01*
X206056457Y-95771913D01*
X206036502Y-96000000D01*
X195963498Y-96000000D01*
X195943543Y-95771913D01*
X195935829Y-95743124D01*
X195885707Y-95556067D01*
X195885706Y-95556065D01*
X195884284Y-95550757D01*
X195852101Y-95481739D01*
X195789849Y-95348238D01*
X195789846Y-95348233D01*
X195787523Y-95343251D01*
X195702810Y-95222268D01*
X195659357Y-95160211D01*
X195659355Y-95160208D01*
X195656198Y-95155700D01*
X195494300Y-94993802D01*
X195489792Y-94990645D01*
X195489789Y-94990643D01*
X195337228Y-94883819D01*
X195306749Y-94862477D01*
X195301767Y-94860154D01*
X195301762Y-94860151D01*
X195104225Y-94768039D01*
X195104224Y-94768039D01*
X195099243Y-94765716D01*
X195093935Y-94764294D01*
X195093933Y-94764293D01*
X194883402Y-94707881D01*
X194883400Y-94707881D01*
X194878087Y-94706457D01*
X194650000Y-94686502D01*
X194421913Y-94706457D01*
X194416600Y-94707881D01*
X194416598Y-94707881D01*
X194206067Y-94764293D01*
X194206065Y-94764294D01*
X194200757Y-94765716D01*
X194195776Y-94768039D01*
X194195775Y-94768039D01*
X193998238Y-94860151D01*
X193998233Y-94860154D01*
X193993251Y-94862477D01*
X193962772Y-94883819D01*
X193810211Y-94990643D01*
X193810208Y-94990645D01*
X193805700Y-94993802D01*
X193643802Y-95155700D01*
X193640645Y-95160208D01*
X193640643Y-95160211D01*
X193533819Y-95312771D01*
X193478362Y-95357099D01*
X193430606Y-95366500D01*
X189101359Y-95366500D01*
X189033238Y-95346498D01*
X188995567Y-95308940D01*
X188939496Y-95222268D01*
X188884764Y-95137665D01*
X188861111Y-95111670D01*
X188835134Y-95083122D01*
X188728887Y-94966358D01*
X188724836Y-94963159D01*
X188724832Y-94963155D01*
X188551177Y-94826011D01*
X188551172Y-94826008D01*
X188547123Y-94822810D01*
X188542607Y-94820317D01*
X188542604Y-94820315D01*
X188348879Y-94713373D01*
X188348875Y-94713371D01*
X188344355Y-94710876D01*
X188339486Y-94709152D01*
X188339482Y-94709150D01*
X188130903Y-94635288D01*
X188130899Y-94635287D01*
X188126028Y-94633562D01*
X188120935Y-94632655D01*
X188120932Y-94632654D01*
X187903095Y-94593851D01*
X187903089Y-94593850D01*
X187898006Y-94592945D01*
X187820644Y-94592000D01*
X187671581Y-94590179D01*
X187671579Y-94590179D01*
X187666411Y-94590116D01*
X187437464Y-94625150D01*
X187217314Y-94697106D01*
X187212726Y-94699494D01*
X187212722Y-94699496D01*
X187056911Y-94780606D01*
X187011872Y-94804052D01*
X187007739Y-94807155D01*
X187007736Y-94807157D01*
X186830790Y-94940012D01*
X186826655Y-94943117D01*
X186810969Y-94959532D01*
X186808787Y-94961815D01*
X186747263Y-94997245D01*
X186676351Y-94993788D01*
X186618564Y-94952543D01*
X186599711Y-94918994D01*
X186578324Y-94861946D01*
X186569786Y-94846351D01*
X186493285Y-94744276D01*
X186480724Y-94731715D01*
X186378649Y-94655214D01*
X186363054Y-94646676D01*
X186242606Y-94601522D01*
X186227351Y-94597895D01*
X186176486Y-94592369D01*
X186169672Y-94592000D01*
X185497115Y-94592000D01*
X185481876Y-94596475D01*
X185480671Y-94597865D01*
X185479000Y-94605548D01*
X185479000Y-97389884D01*
X184971000Y-97389884D01*
X184971000Y-96272115D01*
X184966525Y-96256876D01*
X184965135Y-96255671D01*
X184957452Y-96254000D01*
X183835116Y-96254000D01*
X183819877Y-96258475D01*
X183818672Y-96259865D01*
X183817001Y-96267548D01*
X183817001Y-96944669D01*
X179558794Y-96944669D01*
X179568934Y-95727885D01*
X183817000Y-95727885D01*
X183821475Y-95743124D01*
X183822865Y-95744329D01*
X183830548Y-95746000D01*
X184952885Y-95746000D01*
X184968124Y-95741525D01*
X184969329Y-95740135D01*
X184971000Y-95732452D01*
X184971000Y-94610116D01*
X184966525Y-94594877D01*
X184965135Y-94593672D01*
X184957452Y-94592001D01*
X184280331Y-94592001D01*
X184273510Y-94592371D01*
X184222648Y-94597895D01*
X184207396Y-94601521D01*
X184086946Y-94646676D01*
X184071351Y-94655214D01*
X183969276Y-94731715D01*
X183956715Y-94744276D01*
X183880214Y-94846351D01*
X183871676Y-94861946D01*
X183826522Y-94982394D01*
X183822895Y-94997649D01*
X183817369Y-95048514D01*
X183817000Y-95055328D01*
X183817000Y-95727885D01*
X179568934Y-95727885D01*
X179668378Y-83794666D01*
X211872717Y-83794666D01*
X211886181Y-84000088D01*
X211887981Y-84011456D01*
X211938657Y-84210990D01*
X211942495Y-84221828D01*
X212028684Y-84408786D01*
X212034440Y-84418755D01*
X212051972Y-84443563D01*
X212062563Y-84451954D01*
X212075862Y-84444927D01*
X212687979Y-83832811D01*
X212694356Y-83821132D01*
X213424408Y-83821132D01*
X213424539Y-83822966D01*
X213428790Y-83829580D01*
X214045344Y-84446133D01*
X214057719Y-84452890D01*
X214064299Y-84447964D01*
X214142531Y-84308272D01*
X214147210Y-84297763D01*
X214213384Y-84102823D01*
X214216072Y-84091627D01*
X214245907Y-83885853D01*
X214246537Y-83878470D01*
X214247971Y-83823704D01*
X214247728Y-83816305D01*
X214228703Y-83609246D01*
X214226606Y-83597932D01*
X214170725Y-83399794D01*
X214166603Y-83389055D01*
X214075548Y-83204414D01*
X214069659Y-83194805D01*
X214058458Y-83186399D01*
X214046042Y-83193169D01*
X213432021Y-83807189D01*
X213424408Y-83821132D01*
X212694356Y-83821132D01*
X212695592Y-83818868D01*
X212695461Y-83817034D01*
X212691210Y-83810420D01*
X212073004Y-83192215D01*
X212060629Y-83185458D01*
X212054663Y-83189924D01*
X211965060Y-83360230D01*
X211960655Y-83370864D01*
X211899607Y-83567470D01*
X211897215Y-83578724D01*
X211873018Y-83783165D01*
X211872717Y-83794666D01*
X179668378Y-83794666D01*
X179675461Y-82944669D01*
X183817001Y-82944669D01*
X183817371Y-82951490D01*
X183822895Y-83002352D01*
X183826521Y-83017604D01*
X183871676Y-83138054D01*
X183880214Y-83153649D01*
X183956715Y-83255724D01*
X183969276Y-83268285D01*
X184071351Y-83344786D01*
X184086946Y-83353324D01*
X184207394Y-83398478D01*
X184222649Y-83402105D01*
X184273514Y-83407631D01*
X184280328Y-83408000D01*
X184952885Y-83408000D01*
X184968124Y-83403525D01*
X184969329Y-83402135D01*
X184971000Y-83394452D01*
X184971000Y-83389884D01*
X185479000Y-83389884D01*
X185483475Y-83405123D01*
X185484865Y-83406328D01*
X185492548Y-83407999D01*
X186169669Y-83407999D01*
X186176490Y-83407629D01*
X186227352Y-83402105D01*
X186242604Y-83398479D01*
X186363054Y-83353324D01*
X186378649Y-83344786D01*
X186480724Y-83268285D01*
X186493285Y-83255724D01*
X186569786Y-83153649D01*
X186578324Y-83138054D01*
X186599773Y-83080840D01*
X186642415Y-83024075D01*
X186708977Y-82999376D01*
X186778325Y-83014584D01*
X186798240Y-83028126D01*
X186930010Y-83137523D01*
X186954349Y-83157730D01*
X187154322Y-83274584D01*
X187370694Y-83357209D01*
X187375760Y-83358240D01*
X187375761Y-83358240D01*
X187409745Y-83365154D01*
X187597656Y-83403385D01*
X187728324Y-83408176D01*
X187823949Y-83411683D01*
X187823953Y-83411683D01*
X187829113Y-83411872D01*
X187834233Y-83411216D01*
X187834235Y-83411216D01*
X187933668Y-83398478D01*
X188058847Y-83382442D01*
X188063795Y-83380957D01*
X188063802Y-83380956D01*
X188275747Y-83317369D01*
X188280690Y-83315886D01*
X188285565Y-83313498D01*
X188484049Y-83216262D01*
X188484052Y-83216260D01*
X188488684Y-83213991D01*
X188677243Y-83079494D01*
X188841303Y-82916005D01*
X188976458Y-82727917D01*
X188988440Y-82703672D01*
X189036553Y-82651466D01*
X189101397Y-82633500D01*
X193430606Y-82633500D01*
X193498727Y-82653502D01*
X193533819Y-82687229D01*
X193629414Y-82823752D01*
X193643802Y-82844300D01*
X193805700Y-83006198D01*
X193810208Y-83009355D01*
X193810211Y-83009357D01*
X193837016Y-83028126D01*
X193993251Y-83137523D01*
X193998233Y-83139846D01*
X193998238Y-83139849D01*
X194157238Y-83213991D01*
X194200757Y-83234284D01*
X194206065Y-83235706D01*
X194206067Y-83235707D01*
X194416598Y-83292119D01*
X194416600Y-83292119D01*
X194421913Y-83293543D01*
X194650000Y-83313498D01*
X194878087Y-83293543D01*
X194883400Y-83292119D01*
X194883402Y-83292119D01*
X195093933Y-83235707D01*
X195093935Y-83235706D01*
X195099243Y-83234284D01*
X195142762Y-83213991D01*
X195301762Y-83139849D01*
X195301767Y-83139846D01*
X195306749Y-83137523D01*
X195462984Y-83028126D01*
X195489789Y-83009357D01*
X195489792Y-83009355D01*
X195494300Y-83006198D01*
X195656198Y-82844300D01*
X195671597Y-82822309D01*
X195722111Y-82750167D01*
X195787523Y-82656749D01*
X195789846Y-82651767D01*
X195789849Y-82651762D01*
X195881961Y-82454225D01*
X195881961Y-82454224D01*
X195884284Y-82449243D01*
X195889008Y-82431615D01*
X195942119Y-82233402D01*
X195942119Y-82233400D01*
X195943543Y-82228087D01*
X195963498Y-82000000D01*
X195943543Y-81771913D01*
X195935028Y-81740135D01*
X195885707Y-81556067D01*
X195885706Y-81556065D01*
X195884284Y-81550757D01*
X195842041Y-81460165D01*
X195789849Y-81348238D01*
X195789846Y-81348233D01*
X195787523Y-81343251D01*
X195656198Y-81155700D01*
X195494300Y-80993802D01*
X195489792Y-80990645D01*
X195489789Y-80990643D01*
X195387463Y-80918994D01*
X195306749Y-80862477D01*
X195301767Y-80860154D01*
X195301762Y-80860151D01*
X195104225Y-80768039D01*
X195104224Y-80768039D01*
X195099243Y-80765716D01*
X195093935Y-80764294D01*
X195093933Y-80764293D01*
X194883402Y-80707881D01*
X194883400Y-80707881D01*
X194878087Y-80706457D01*
X194650000Y-80686502D01*
X194421913Y-80706457D01*
X194416600Y-80707881D01*
X194416598Y-80707881D01*
X194206067Y-80764293D01*
X194206065Y-80764294D01*
X194200757Y-80765716D01*
X194195776Y-80768039D01*
X194195775Y-80768039D01*
X193998238Y-80860151D01*
X193998233Y-80860154D01*
X193993251Y-80862477D01*
X193912537Y-80918994D01*
X193810211Y-80990643D01*
X193810208Y-80990645D01*
X193805700Y-80993802D01*
X193643802Y-81155700D01*
X193640645Y-81160208D01*
X193640643Y-81160211D01*
X193533819Y-81312771D01*
X193478362Y-81357099D01*
X193430606Y-81366500D01*
X189101359Y-81366500D01*
X189033238Y-81346498D01*
X188995567Y-81308940D01*
X188953007Y-81243152D01*
X188884764Y-81137665D01*
X188728887Y-80966358D01*
X188724836Y-80963159D01*
X188724832Y-80963155D01*
X188551177Y-80826011D01*
X188551172Y-80826008D01*
X188547123Y-80822810D01*
X188542607Y-80820317D01*
X188542604Y-80820315D01*
X188348879Y-80713373D01*
X188348875Y-80713371D01*
X188344355Y-80710876D01*
X188339486Y-80709152D01*
X188339482Y-80709150D01*
X188130903Y-80635288D01*
X188130899Y-80635287D01*
X188126028Y-80633562D01*
X188120935Y-80632655D01*
X188120932Y-80632654D01*
X187903095Y-80593851D01*
X187903089Y-80593850D01*
X187898006Y-80592945D01*
X187820644Y-80592000D01*
X187671581Y-80590179D01*
X187671579Y-80590179D01*
X187666411Y-80590116D01*
X187437464Y-80625150D01*
X187217314Y-80697106D01*
X187212726Y-80699494D01*
X187212722Y-80699496D01*
X187016461Y-80801663D01*
X187011872Y-80804052D01*
X187007739Y-80807155D01*
X187007736Y-80807157D01*
X186830790Y-80940012D01*
X186826655Y-80943117D01*
X186823083Y-80946855D01*
X186808787Y-80961815D01*
X186747263Y-80997245D01*
X186676351Y-80993788D01*
X186618564Y-80952543D01*
X186599711Y-80918994D01*
X186578324Y-80861946D01*
X186569786Y-80846351D01*
X186493285Y-80744276D01*
X186480724Y-80731715D01*
X186378649Y-80655214D01*
X186363054Y-80646676D01*
X186242606Y-80601522D01*
X186227351Y-80597895D01*
X186176486Y-80592369D01*
X186169672Y-80592000D01*
X185497115Y-80592000D01*
X185481876Y-80596475D01*
X185480671Y-80597865D01*
X185479000Y-80605548D01*
X185479000Y-83389884D01*
X184971000Y-83389884D01*
X184971000Y-82272115D01*
X184966525Y-82256876D01*
X184965135Y-82255671D01*
X184957452Y-82254000D01*
X183835116Y-82254000D01*
X183819877Y-82258475D01*
X183818672Y-82259865D01*
X183817001Y-82267548D01*
X183817001Y-82944669D01*
X179675461Y-82944669D01*
X179685601Y-81727885D01*
X183817000Y-81727885D01*
X183821475Y-81743124D01*
X183822865Y-81744329D01*
X183830548Y-81746000D01*
X184952885Y-81746000D01*
X184968124Y-81741525D01*
X184969329Y-81740135D01*
X184971000Y-81732452D01*
X184971000Y-80610116D01*
X184966525Y-80594877D01*
X184965135Y-80593672D01*
X184957452Y-80592001D01*
X184280331Y-80592001D01*
X184273510Y-80592371D01*
X184222648Y-80597895D01*
X184207396Y-80601521D01*
X184086946Y-80646676D01*
X184071351Y-80655214D01*
X183969276Y-80731715D01*
X183956715Y-80744276D01*
X183880214Y-80846351D01*
X183871676Y-80861946D01*
X183826522Y-80982394D01*
X183822895Y-80997649D01*
X183817369Y-81048514D01*
X183817000Y-81055328D01*
X183817000Y-81727885D01*
X179685601Y-81727885D01*
X179787295Y-69524669D01*
X183817001Y-69524669D01*
X183817371Y-69531490D01*
X183822895Y-69582352D01*
X183826521Y-69597604D01*
X183871676Y-69718054D01*
X183880214Y-69733649D01*
X183956715Y-69835724D01*
X183969276Y-69848285D01*
X184071351Y-69924786D01*
X184086946Y-69933324D01*
X184207394Y-69978478D01*
X184222649Y-69982105D01*
X184273514Y-69987631D01*
X184280328Y-69988000D01*
X184952885Y-69988000D01*
X184968124Y-69983525D01*
X184969329Y-69982135D01*
X184971000Y-69974452D01*
X184971000Y-69969884D01*
X185479000Y-69969884D01*
X185483475Y-69985123D01*
X185484865Y-69986328D01*
X185492548Y-69987999D01*
X186169669Y-69987999D01*
X186176490Y-69987629D01*
X186227352Y-69982105D01*
X186242604Y-69978479D01*
X186363054Y-69933324D01*
X186378649Y-69924786D01*
X186480724Y-69848285D01*
X186493285Y-69835724D01*
X186569786Y-69733649D01*
X186578324Y-69718054D01*
X186599773Y-69660840D01*
X186642415Y-69604075D01*
X186708977Y-69579376D01*
X186778325Y-69594584D01*
X186798240Y-69608126D01*
X186943068Y-69728364D01*
X186954349Y-69737730D01*
X187154322Y-69854584D01*
X187370694Y-69937209D01*
X187375760Y-69938240D01*
X187375761Y-69938240D01*
X187428846Y-69949040D01*
X187597656Y-69983385D01*
X187728324Y-69988176D01*
X187823949Y-69991683D01*
X187823953Y-69991683D01*
X187829113Y-69991872D01*
X187834233Y-69991216D01*
X187834235Y-69991216D01*
X187918852Y-69980376D01*
X188058847Y-69962442D01*
X188063795Y-69960957D01*
X188063802Y-69960956D01*
X188275747Y-69897369D01*
X188280690Y-69895886D01*
X188285565Y-69893498D01*
X188484049Y-69796262D01*
X188484052Y-69796260D01*
X188488684Y-69793991D01*
X188677243Y-69659494D01*
X188841303Y-69496005D01*
X188976458Y-69307917D01*
X188988440Y-69283672D01*
X189036553Y-69231466D01*
X189101397Y-69213500D01*
X193430606Y-69213500D01*
X193498727Y-69233502D01*
X193533819Y-69267229D01*
X193616354Y-69385101D01*
X193643802Y-69424300D01*
X193805700Y-69586198D01*
X193810208Y-69589355D01*
X193810211Y-69589357D01*
X193836542Y-69607794D01*
X193993251Y-69717523D01*
X193998233Y-69719846D01*
X193998238Y-69719849D01*
X194157238Y-69793991D01*
X194200757Y-69814284D01*
X194206065Y-69815706D01*
X194206067Y-69815707D01*
X194416598Y-69872119D01*
X194416600Y-69872119D01*
X194421913Y-69873543D01*
X194650000Y-69893498D01*
X194878087Y-69873543D01*
X194883400Y-69872119D01*
X194883402Y-69872119D01*
X195093933Y-69815707D01*
X195093935Y-69815706D01*
X195099243Y-69814284D01*
X195142762Y-69793991D01*
X195301762Y-69719849D01*
X195301767Y-69719846D01*
X195306749Y-69717523D01*
X195463458Y-69607794D01*
X195489789Y-69589357D01*
X195489792Y-69589355D01*
X195494300Y-69586198D01*
X195656198Y-69424300D01*
X195686358Y-69381228D01*
X195754113Y-69284463D01*
X195787523Y-69236749D01*
X195789846Y-69231767D01*
X195789849Y-69231762D01*
X195881961Y-69034225D01*
X195881961Y-69034224D01*
X195884284Y-69029243D01*
X195886746Y-69020057D01*
X195942119Y-68813402D01*
X195942119Y-68813400D01*
X195943543Y-68808087D01*
X195963498Y-68580000D01*
X195943543Y-68351913D01*
X195935028Y-68320135D01*
X195885707Y-68136067D01*
X195885706Y-68136065D01*
X195884284Y-68130757D01*
X195804181Y-67958974D01*
X195789849Y-67928238D01*
X195789846Y-67928233D01*
X195787523Y-67923251D01*
X195656198Y-67735700D01*
X195494300Y-67573802D01*
X195489792Y-67570645D01*
X195489789Y-67570643D01*
X195387463Y-67498994D01*
X195306749Y-67442477D01*
X195301767Y-67440154D01*
X195301762Y-67440151D01*
X195104225Y-67348039D01*
X195104224Y-67348039D01*
X195099243Y-67345716D01*
X195093935Y-67344294D01*
X195093933Y-67344293D01*
X194883402Y-67287881D01*
X194883400Y-67287881D01*
X194878087Y-67286457D01*
X194650000Y-67266502D01*
X194421913Y-67286457D01*
X194416600Y-67287881D01*
X194416598Y-67287881D01*
X194206067Y-67344293D01*
X194206065Y-67344294D01*
X194200757Y-67345716D01*
X194195776Y-67348039D01*
X194195775Y-67348039D01*
X193998238Y-67440151D01*
X193998233Y-67440154D01*
X193993251Y-67442477D01*
X193912537Y-67498994D01*
X193810211Y-67570643D01*
X193810208Y-67570645D01*
X193805700Y-67573802D01*
X193643802Y-67735700D01*
X193640645Y-67740208D01*
X193640643Y-67740211D01*
X193533819Y-67892771D01*
X193478362Y-67937099D01*
X193430606Y-67946500D01*
X189101359Y-67946500D01*
X189033238Y-67926498D01*
X188995567Y-67888940D01*
X188991012Y-67881899D01*
X188884764Y-67717665D01*
X188728887Y-67546358D01*
X188724836Y-67543159D01*
X188724832Y-67543155D01*
X188551177Y-67406011D01*
X188551172Y-67406008D01*
X188547123Y-67402810D01*
X188542607Y-67400317D01*
X188542604Y-67400315D01*
X188348879Y-67293373D01*
X188348875Y-67293371D01*
X188344355Y-67290876D01*
X188339486Y-67289152D01*
X188339482Y-67289150D01*
X188130903Y-67215288D01*
X188130899Y-67215287D01*
X188126028Y-67213562D01*
X188120935Y-67212655D01*
X188120932Y-67212654D01*
X187903095Y-67173851D01*
X187903089Y-67173850D01*
X187898006Y-67172945D01*
X187820644Y-67172000D01*
X187671581Y-67170179D01*
X187671579Y-67170179D01*
X187666411Y-67170116D01*
X187437464Y-67205150D01*
X187217314Y-67277106D01*
X187212726Y-67279494D01*
X187212722Y-67279496D01*
X187016461Y-67381663D01*
X187011872Y-67384052D01*
X187007739Y-67387155D01*
X187007736Y-67387157D01*
X186830790Y-67520012D01*
X186826655Y-67523117D01*
X186823083Y-67526855D01*
X186808787Y-67541815D01*
X186747263Y-67577245D01*
X186676351Y-67573788D01*
X186618564Y-67532543D01*
X186599711Y-67498994D01*
X186578324Y-67441946D01*
X186569786Y-67426351D01*
X186493285Y-67324276D01*
X186480724Y-67311715D01*
X186378649Y-67235214D01*
X186363054Y-67226676D01*
X186242606Y-67181522D01*
X186227351Y-67177895D01*
X186176486Y-67172369D01*
X186169672Y-67172000D01*
X185497115Y-67172000D01*
X185481876Y-67176475D01*
X185480671Y-67177865D01*
X185479000Y-67185548D01*
X185479000Y-69969884D01*
X184971000Y-69969884D01*
X184971000Y-68852115D01*
X184966525Y-68836876D01*
X184965135Y-68835671D01*
X184957452Y-68834000D01*
X183835116Y-68834000D01*
X183819877Y-68838475D01*
X183818672Y-68839865D01*
X183817001Y-68847548D01*
X183817001Y-69524669D01*
X179787295Y-69524669D01*
X179797435Y-68307885D01*
X183817000Y-68307885D01*
X183821475Y-68323124D01*
X183822865Y-68324329D01*
X183830548Y-68326000D01*
X184952885Y-68326000D01*
X184968124Y-68321525D01*
X184969329Y-68320135D01*
X184971000Y-68312452D01*
X184971000Y-67190116D01*
X184966525Y-67174877D01*
X184965135Y-67173672D01*
X184957452Y-67172001D01*
X184280331Y-67172001D01*
X184273510Y-67172371D01*
X184222648Y-67177895D01*
X184207396Y-67181521D01*
X184086946Y-67226676D01*
X184071351Y-67235214D01*
X183969276Y-67311715D01*
X183956715Y-67324276D01*
X183880214Y-67426351D01*
X183871676Y-67441946D01*
X183826522Y-67562394D01*
X183822895Y-67577649D01*
X183817369Y-67628514D01*
X183817000Y-67635328D01*
X183817000Y-68307885D01*
X179797435Y-68307885D01*
X179930500Y-52340000D01*
X184481358Y-52340000D01*
X184501870Y-52535155D01*
X184503911Y-52541436D01*
X184503911Y-52541437D01*
X184531167Y-52625325D01*
X184533194Y-52696292D01*
X184529316Y-52708489D01*
X184496029Y-52797282D01*
X184496027Y-52797288D01*
X184493255Y-52804684D01*
X184486500Y-52866866D01*
X184486500Y-53813134D01*
X184493255Y-53875316D01*
X184544385Y-54011705D01*
X184631739Y-54128261D01*
X184748295Y-54215615D01*
X184884684Y-54266745D01*
X184946866Y-54273500D01*
X185893134Y-54273500D01*
X185955316Y-54266745D01*
X186091705Y-54215615D01*
X186208261Y-54128261D01*
X186295615Y-54011705D01*
X186346745Y-53875316D01*
X186353500Y-53813134D01*
X186353500Y-53099500D01*
X186373502Y-53031379D01*
X186427158Y-52984886D01*
X186479500Y-52973500D01*
X191525406Y-52973500D01*
X191593527Y-52993502D01*
X191614501Y-53010405D01*
X196048843Y-57444747D01*
X196056387Y-57453037D01*
X196060500Y-57459518D01*
X196066277Y-57464943D01*
X196110167Y-57506158D01*
X196113009Y-57508913D01*
X196132730Y-57528634D01*
X196135925Y-57531112D01*
X196144947Y-57538818D01*
X196177179Y-57569086D01*
X196184128Y-57572906D01*
X196194932Y-57578846D01*
X196211456Y-57589699D01*
X196227459Y-57602113D01*
X196268043Y-57619676D01*
X196278673Y-57624883D01*
X196317440Y-57646195D01*
X196325117Y-57648166D01*
X196325122Y-57648168D01*
X196337058Y-57651232D01*
X196355766Y-57657637D01*
X196374355Y-57665681D01*
X196382180Y-57666920D01*
X196382182Y-57666921D01*
X196418019Y-57672597D01*
X196429640Y-57675004D01*
X196464789Y-57684028D01*
X196472470Y-57686000D01*
X196492731Y-57686000D01*
X196512440Y-57687551D01*
X196532443Y-57690719D01*
X196540335Y-57689973D01*
X196545562Y-57689479D01*
X196576454Y-57686559D01*
X196588311Y-57686000D01*
X201718000Y-57686000D01*
X201786121Y-57706002D01*
X201832614Y-57759658D01*
X201844000Y-57812000D01*
X201844000Y-57850634D01*
X201850755Y-57912816D01*
X201901885Y-58049205D01*
X201989239Y-58165761D01*
X202105795Y-58253115D01*
X202242184Y-58304245D01*
X202304366Y-58311000D01*
X203900634Y-58311000D01*
X203962816Y-58304245D01*
X204099205Y-58253115D01*
X204215761Y-58165761D01*
X204303115Y-58049205D01*
X204354245Y-57912816D01*
X204361000Y-57850634D01*
X204361000Y-56254366D01*
X204354245Y-56192184D01*
X204303115Y-56055795D01*
X204215761Y-55939239D01*
X204099205Y-55851885D01*
X203962816Y-55800755D01*
X203900634Y-55794000D01*
X203866077Y-55794000D01*
X203797956Y-55773998D01*
X203751463Y-55720342D01*
X203741359Y-55650068D01*
X203770853Y-55585488D01*
X203793806Y-55564787D01*
X203910027Y-55483408D01*
X203910029Y-55483406D01*
X203914538Y-55480249D01*
X204070249Y-55324538D01*
X204119398Y-55254347D01*
X204131717Y-55236753D01*
X204187174Y-55192425D01*
X204257794Y-55185116D01*
X204324025Y-55219929D01*
X209829595Y-60725499D01*
X209863621Y-60787811D01*
X209866500Y-60814594D01*
X209866500Y-68685405D01*
X209846498Y-68753526D01*
X209829595Y-68774501D01*
X209602812Y-69001283D01*
X209584542Y-69016397D01*
X209584292Y-69016567D01*
X209584288Y-69016570D01*
X209577729Y-69021028D01*
X209572485Y-69026976D01*
X209572484Y-69026977D01*
X209540589Y-69063155D01*
X209535170Y-69068925D01*
X209523865Y-69080230D01*
X209521435Y-69083363D01*
X209514057Y-69092874D01*
X209509012Y-69098972D01*
X209482882Y-69128611D01*
X209471880Y-69141090D01*
X209468281Y-69148154D01*
X209468280Y-69148155D01*
X209468140Y-69148429D01*
X209455434Y-69168450D01*
X209455248Y-69168690D01*
X209455246Y-69168694D01*
X209450386Y-69174959D01*
X209432091Y-69217237D01*
X209428079Y-69226507D01*
X209424722Y-69233642D01*
X209399215Y-69283704D01*
X209397417Y-69291749D01*
X209390091Y-69314294D01*
X209386819Y-69321855D01*
X209385579Y-69329685D01*
X209378033Y-69377326D01*
X209376549Y-69385101D01*
X209364298Y-69439909D01*
X209364547Y-69447832D01*
X209364547Y-69447833D01*
X209364557Y-69448141D01*
X209363067Y-69471815D01*
X209361780Y-69479943D01*
X209362526Y-69487835D01*
X209362526Y-69487836D01*
X209367065Y-69535858D01*
X209367562Y-69543755D01*
X209369327Y-69599889D01*
X209371539Y-69607501D01*
X209371624Y-69607794D01*
X209376068Y-69631094D01*
X209376843Y-69639292D01*
X209386391Y-69665813D01*
X209395871Y-69692144D01*
X209398317Y-69699673D01*
X209411770Y-69745981D01*
X209411772Y-69745985D01*
X209413982Y-69753593D01*
X209418017Y-69760416D01*
X209418019Y-69760420D01*
X209418177Y-69760688D01*
X209428267Y-69782132D01*
X209428372Y-69782423D01*
X209428376Y-69782431D01*
X209431061Y-69789889D01*
X209462646Y-69836365D01*
X209466855Y-69842996D01*
X209495458Y-69891362D01*
X209501278Y-69897182D01*
X209516394Y-69915453D01*
X209521028Y-69922271D01*
X209526976Y-69927515D01*
X209526977Y-69927516D01*
X209563163Y-69959418D01*
X209568933Y-69964837D01*
X211116348Y-71512253D01*
X211123888Y-71520539D01*
X211128000Y-71527018D01*
X211133777Y-71532443D01*
X211177651Y-71573643D01*
X211180493Y-71576398D01*
X211200230Y-71596135D01*
X211203427Y-71598615D01*
X211212447Y-71606318D01*
X211244679Y-71636586D01*
X211251625Y-71640405D01*
X211251628Y-71640407D01*
X211262434Y-71646348D01*
X211278953Y-71657199D01*
X211294959Y-71669614D01*
X211302228Y-71672759D01*
X211302232Y-71672762D01*
X211335537Y-71687174D01*
X211346187Y-71692391D01*
X211384940Y-71713695D01*
X211392615Y-71715666D01*
X211392616Y-71715666D01*
X211404562Y-71718733D01*
X211423267Y-71725137D01*
X211441855Y-71733181D01*
X211449678Y-71734420D01*
X211449688Y-71734423D01*
X211485524Y-71740099D01*
X211497144Y-71742505D01*
X211532289Y-71751528D01*
X211539970Y-71753500D01*
X211560224Y-71753500D01*
X211579934Y-71755051D01*
X211599943Y-71758220D01*
X211607835Y-71757474D01*
X211643961Y-71754059D01*
X211655819Y-71753500D01*
X211993139Y-71753500D01*
X212061260Y-71773502D01*
X212096036Y-71806779D01*
X212156204Y-71891914D01*
X212312009Y-72043692D01*
X212492863Y-72164536D01*
X212498171Y-72166817D01*
X212498172Y-72166817D01*
X212687409Y-72248119D01*
X212687412Y-72248120D01*
X212692712Y-72250397D01*
X212741995Y-72261549D01*
X212757825Y-72265131D01*
X212819851Y-72299675D01*
X212853356Y-72362268D01*
X212847700Y-72433039D01*
X212804681Y-72489518D01*
X212762626Y-72509731D01*
X212758073Y-72510951D01*
X212752375Y-72511930D01*
X212548307Y-72587214D01*
X212361376Y-72698427D01*
X212197842Y-72841842D01*
X212194270Y-72846373D01*
X212090633Y-72977836D01*
X212063181Y-73012658D01*
X212060493Y-73017767D01*
X212027877Y-73079760D01*
X211961905Y-73205154D01*
X211960192Y-73210671D01*
X211908175Y-73378192D01*
X211897403Y-73412882D01*
X211871837Y-73628887D01*
X211886063Y-73845933D01*
X211887484Y-73851529D01*
X211887485Y-73851534D01*
X211938184Y-74051158D01*
X211939605Y-74056753D01*
X212030668Y-74254285D01*
X212156204Y-74431914D01*
X212312009Y-74583692D01*
X212492863Y-74704536D01*
X212498171Y-74706817D01*
X212498172Y-74706817D01*
X212687409Y-74788119D01*
X212687412Y-74788120D01*
X212692712Y-74790397D01*
X212741995Y-74801549D01*
X212757825Y-74805131D01*
X212819851Y-74839675D01*
X212853356Y-74902268D01*
X212847700Y-74973039D01*
X212804681Y-75029518D01*
X212762626Y-75049731D01*
X212758073Y-75050951D01*
X212752375Y-75051930D01*
X212548307Y-75127214D01*
X212361376Y-75238427D01*
X212197842Y-75381842D01*
X212063181Y-75552658D01*
X211961905Y-75745154D01*
X211897403Y-75952882D01*
X211871837Y-76168887D01*
X211877954Y-76262205D01*
X211884104Y-76356038D01*
X211868600Y-76425321D01*
X211818101Y-76475224D01*
X211748638Y-76489902D01*
X211682266Y-76464696D01*
X211669279Y-76453374D01*
X208020405Y-72804500D01*
X207986379Y-72742188D01*
X207983500Y-72715405D01*
X207983500Y-69799394D01*
X208003502Y-69731273D01*
X208037229Y-69696181D01*
X208189789Y-69589357D01*
X208189792Y-69589355D01*
X208194300Y-69586198D01*
X208356198Y-69424300D01*
X208386358Y-69381228D01*
X208454113Y-69284463D01*
X208487523Y-69236749D01*
X208489846Y-69231767D01*
X208489849Y-69231762D01*
X208581961Y-69034225D01*
X208581961Y-69034224D01*
X208584284Y-69029243D01*
X208586746Y-69020057D01*
X208642119Y-68813402D01*
X208642119Y-68813400D01*
X208643543Y-68808087D01*
X208663498Y-68580000D01*
X208643543Y-68351913D01*
X208635028Y-68320135D01*
X208585707Y-68136067D01*
X208585706Y-68136065D01*
X208584284Y-68130757D01*
X208504181Y-67958974D01*
X208489849Y-67928238D01*
X208489846Y-67928233D01*
X208487523Y-67923251D01*
X208356198Y-67735700D01*
X208194300Y-67573802D01*
X208189792Y-67570645D01*
X208189789Y-67570643D01*
X208087463Y-67498994D01*
X208006749Y-67442477D01*
X208001767Y-67440154D01*
X208001762Y-67440151D01*
X207804225Y-67348039D01*
X207804224Y-67348039D01*
X207799243Y-67345716D01*
X207793935Y-67344294D01*
X207793933Y-67344293D01*
X207583402Y-67287881D01*
X207583400Y-67287881D01*
X207578087Y-67286457D01*
X207350000Y-67266502D01*
X207121913Y-67286457D01*
X207116600Y-67287881D01*
X207116598Y-67287881D01*
X206906067Y-67344293D01*
X206906065Y-67344294D01*
X206900757Y-67345716D01*
X206895776Y-67348039D01*
X206895775Y-67348039D01*
X206698238Y-67440151D01*
X206698233Y-67440154D01*
X206693251Y-67442477D01*
X206612537Y-67498994D01*
X206510211Y-67570643D01*
X206510208Y-67570645D01*
X206505700Y-67573802D01*
X206343802Y-67735700D01*
X206212477Y-67923251D01*
X206210154Y-67928233D01*
X206210151Y-67928238D01*
X206195819Y-67958974D01*
X206115716Y-68130757D01*
X206114294Y-68136065D01*
X206114293Y-68136067D01*
X206064972Y-68320135D01*
X206056457Y-68351913D01*
X206036502Y-68580000D01*
X206056457Y-68808087D01*
X206057881Y-68813400D01*
X206057881Y-68813402D01*
X206113255Y-69020057D01*
X206115716Y-69029243D01*
X206118039Y-69034224D01*
X206118039Y-69034225D01*
X206210151Y-69231762D01*
X206210154Y-69231767D01*
X206212477Y-69236749D01*
X206245887Y-69284463D01*
X206313643Y-69381228D01*
X206343802Y-69424300D01*
X206505700Y-69586198D01*
X206510208Y-69589355D01*
X206510211Y-69589357D01*
X206662771Y-69696181D01*
X206707099Y-69751638D01*
X206716500Y-69799394D01*
X206716500Y-72951233D01*
X206715973Y-72962416D01*
X206714298Y-72969909D01*
X206714547Y-72977835D01*
X206714547Y-72977836D01*
X206716438Y-73037986D01*
X206716500Y-73041945D01*
X206716500Y-73069856D01*
X206716997Y-73073790D01*
X206716997Y-73073791D01*
X206717005Y-73073856D01*
X206717938Y-73085693D01*
X206719327Y-73129889D01*
X206724978Y-73149339D01*
X206728987Y-73168700D01*
X206731526Y-73188797D01*
X206734445Y-73196168D01*
X206734445Y-73196170D01*
X206747804Y-73229912D01*
X206751649Y-73241142D01*
X206763982Y-73283593D01*
X206768015Y-73290412D01*
X206768017Y-73290417D01*
X206774293Y-73301028D01*
X206782988Y-73318776D01*
X206790448Y-73337617D01*
X206795110Y-73344033D01*
X206795110Y-73344034D01*
X206816436Y-73373387D01*
X206822952Y-73383307D01*
X206840443Y-73412882D01*
X206845458Y-73421362D01*
X206859779Y-73435683D01*
X206872619Y-73450716D01*
X206884528Y-73467107D01*
X206890634Y-73472158D01*
X206918605Y-73495298D01*
X206927384Y-73503288D01*
X211856260Y-78432164D01*
X211890286Y-78494476D01*
X211892292Y-78536066D01*
X211871837Y-78708887D01*
X211886063Y-78925933D01*
X211887484Y-78931529D01*
X211887485Y-78931534D01*
X211938184Y-79131158D01*
X211939605Y-79136753D01*
X212030668Y-79334285D01*
X212156204Y-79511914D01*
X212312009Y-79663692D01*
X212492863Y-79784536D01*
X212498171Y-79786817D01*
X212498172Y-79786817D01*
X212687409Y-79868119D01*
X212687412Y-79868120D01*
X212692712Y-79870397D01*
X212741995Y-79881549D01*
X212757825Y-79885131D01*
X212819851Y-79919675D01*
X212853356Y-79982268D01*
X212847700Y-80053039D01*
X212804681Y-80109518D01*
X212762626Y-80129731D01*
X212758073Y-80130951D01*
X212752375Y-80131930D01*
X212548307Y-80207214D01*
X212361376Y-80318427D01*
X212197842Y-80461842D01*
X212194270Y-80466373D01*
X212080952Y-80610116D01*
X212063181Y-80632658D01*
X211961905Y-80825154D01*
X211960192Y-80830671D01*
X211908328Y-80997699D01*
X211897403Y-81032882D01*
X211871837Y-81248887D01*
X211870894Y-81248775D01*
X211850723Y-81311369D01*
X211795870Y-81356443D01*
X211746542Y-81366500D01*
X208569394Y-81366500D01*
X208501273Y-81346498D01*
X208466181Y-81312771D01*
X208359357Y-81160211D01*
X208359355Y-81160208D01*
X208356198Y-81155700D01*
X208194300Y-80993802D01*
X208189792Y-80990645D01*
X208189789Y-80990643D01*
X208087463Y-80918994D01*
X208006749Y-80862477D01*
X208001767Y-80860154D01*
X208001762Y-80860151D01*
X207804225Y-80768039D01*
X207804224Y-80768039D01*
X207799243Y-80765716D01*
X207793935Y-80764294D01*
X207793933Y-80764293D01*
X207583402Y-80707881D01*
X207583400Y-80707881D01*
X207578087Y-80706457D01*
X207350000Y-80686502D01*
X207121913Y-80706457D01*
X207116600Y-80707881D01*
X207116598Y-80707881D01*
X206906067Y-80764293D01*
X206906065Y-80764294D01*
X206900757Y-80765716D01*
X206895776Y-80768039D01*
X206895775Y-80768039D01*
X206698238Y-80860151D01*
X206698233Y-80860154D01*
X206693251Y-80862477D01*
X206612537Y-80918994D01*
X206510211Y-80990643D01*
X206510208Y-80990645D01*
X206505700Y-80993802D01*
X206343802Y-81155700D01*
X206212477Y-81343251D01*
X206210154Y-81348233D01*
X206210151Y-81348238D01*
X206157959Y-81460165D01*
X206115716Y-81550757D01*
X206114294Y-81556065D01*
X206114293Y-81556067D01*
X206064972Y-81740135D01*
X206056457Y-81771913D01*
X206036502Y-82000000D01*
X206056457Y-82228087D01*
X206057881Y-82233400D01*
X206057881Y-82233402D01*
X206110993Y-82431615D01*
X206115716Y-82449243D01*
X206118039Y-82454224D01*
X206118039Y-82454225D01*
X206210151Y-82651762D01*
X206210154Y-82651767D01*
X206212477Y-82656749D01*
X206277889Y-82750167D01*
X206328404Y-82822309D01*
X206343802Y-82844300D01*
X206505700Y-83006198D01*
X206510208Y-83009355D01*
X206510211Y-83009357D01*
X206537016Y-83028126D01*
X206693251Y-83137523D01*
X206698233Y-83139846D01*
X206698238Y-83139849D01*
X206857238Y-83213991D01*
X206900757Y-83234284D01*
X206906065Y-83235706D01*
X206906067Y-83235707D01*
X207116598Y-83292119D01*
X207116600Y-83292119D01*
X207121913Y-83293543D01*
X207350000Y-83313498D01*
X207578087Y-83293543D01*
X207583400Y-83292119D01*
X207583402Y-83292119D01*
X207793933Y-83235707D01*
X207793935Y-83235706D01*
X207799243Y-83234284D01*
X207842762Y-83213991D01*
X208001762Y-83139849D01*
X208001767Y-83139846D01*
X208006749Y-83137523D01*
X208162984Y-83028126D01*
X208189789Y-83009357D01*
X208189792Y-83009355D01*
X208194300Y-83006198D01*
X208356198Y-82844300D01*
X208370586Y-82823752D01*
X208466181Y-82687229D01*
X208521638Y-82642901D01*
X208569394Y-82633500D01*
X212261233Y-82633500D01*
X212272416Y-82634027D01*
X212279909Y-82635702D01*
X212287835Y-82635453D01*
X212287836Y-82635453D01*
X212310926Y-82634727D01*
X212379642Y-82652579D01*
X212427798Y-82704748D01*
X212440104Y-82774669D01*
X212432796Y-82792101D01*
X212427383Y-82822309D01*
X212431553Y-82832342D01*
X213047189Y-83447979D01*
X213061132Y-83455592D01*
X213062966Y-83455461D01*
X213069580Y-83451210D01*
X213684662Y-82836127D01*
X213691419Y-82823752D01*
X213685389Y-82815696D01*
X213604256Y-82764505D01*
X213594008Y-82759284D01*
X213402799Y-82682999D01*
X213391762Y-82679730D01*
X213365507Y-82674507D01*
X213302598Y-82641599D01*
X213267466Y-82579904D01*
X213271266Y-82509009D01*
X213312792Y-82451423D01*
X213349588Y-82431615D01*
X213368690Y-82425131D01*
X213412095Y-82410397D01*
X213537963Y-82367671D01*
X213537968Y-82367669D01*
X213543435Y-82365813D01*
X213733213Y-82259532D01*
X213900446Y-82120446D01*
X214039532Y-81953213D01*
X214145813Y-81763435D01*
X214147669Y-81757968D01*
X214147671Y-81757963D01*
X214213874Y-81562935D01*
X214213875Y-81562930D01*
X214215730Y-81557466D01*
X214246941Y-81342205D01*
X214248570Y-81280000D01*
X214228667Y-81063400D01*
X214226391Y-81055328D01*
X214193868Y-80940012D01*
X214169626Y-80854055D01*
X214073423Y-80658974D01*
X214049366Y-80626757D01*
X213946733Y-80489315D01*
X213946732Y-80489314D01*
X213943280Y-80484691D01*
X213783556Y-80337044D01*
X213599599Y-80220976D01*
X213397572Y-80140376D01*
X213366453Y-80134186D01*
X213303544Y-80101278D01*
X213268412Y-80039583D01*
X213272212Y-79968689D01*
X213313738Y-79911103D01*
X213350534Y-79891294D01*
X213537963Y-79827671D01*
X213537968Y-79827669D01*
X213543435Y-79825813D01*
X213733213Y-79719532D01*
X213900446Y-79580446D01*
X214039532Y-79413213D01*
X214145813Y-79223435D01*
X214147669Y-79217968D01*
X214147671Y-79217963D01*
X214213874Y-79022935D01*
X214213875Y-79022930D01*
X214215730Y-79017466D01*
X214246941Y-78802205D01*
X214248570Y-78740000D01*
X214228667Y-78523400D01*
X214215848Y-78477945D01*
X214171195Y-78319619D01*
X214169626Y-78314055D01*
X214073423Y-78118974D01*
X213943280Y-77944691D01*
X213783556Y-77797044D01*
X213599599Y-77680976D01*
X213397572Y-77600376D01*
X213366453Y-77594186D01*
X213303544Y-77561278D01*
X213268412Y-77499583D01*
X213272212Y-77428689D01*
X213313738Y-77371103D01*
X213350534Y-77351294D01*
X213537963Y-77287671D01*
X213537968Y-77287669D01*
X213543435Y-77285813D01*
X213733213Y-77179532D01*
X213900446Y-77040446D01*
X214039532Y-76873213D01*
X214145813Y-76683435D01*
X214147669Y-76677968D01*
X214147671Y-76677963D01*
X214213874Y-76482935D01*
X214213875Y-76482930D01*
X214215730Y-76477466D01*
X214246941Y-76262205D01*
X214248570Y-76200000D01*
X214228667Y-75983400D01*
X214169626Y-75774055D01*
X214073423Y-75578974D01*
X213943280Y-75404691D01*
X213783556Y-75257044D01*
X213599599Y-75140976D01*
X213397572Y-75060376D01*
X213366453Y-75054186D01*
X213303544Y-75021278D01*
X213268412Y-74959583D01*
X213272212Y-74888689D01*
X213313738Y-74831103D01*
X213350534Y-74811294D01*
X213537963Y-74747671D01*
X213537968Y-74747669D01*
X213543435Y-74745813D01*
X213733213Y-74639532D01*
X213900446Y-74500446D01*
X214039532Y-74333213D01*
X214145813Y-74143435D01*
X214147669Y-74137968D01*
X214147671Y-74137963D01*
X214213874Y-73942935D01*
X214213875Y-73942930D01*
X214215730Y-73937466D01*
X214246941Y-73722205D01*
X214248570Y-73660000D01*
X214228667Y-73443400D01*
X214169626Y-73234055D01*
X214073423Y-73038974D01*
X213943280Y-72864691D01*
X213783556Y-72717044D01*
X213599599Y-72600976D01*
X213397572Y-72520376D01*
X213366453Y-72514186D01*
X213303544Y-72481278D01*
X213268412Y-72419583D01*
X213272212Y-72348689D01*
X213313738Y-72291103D01*
X213350534Y-72271294D01*
X213537963Y-72207671D01*
X213537968Y-72207669D01*
X213543435Y-72205813D01*
X213733213Y-72099532D01*
X213900446Y-71960446D01*
X214039532Y-71793213D01*
X214145813Y-71603435D01*
X214147669Y-71597968D01*
X214147671Y-71597963D01*
X214213874Y-71402935D01*
X214213875Y-71402930D01*
X214215730Y-71397466D01*
X214246941Y-71182205D01*
X214248570Y-71120000D01*
X214228667Y-70903400D01*
X214169626Y-70694055D01*
X214073423Y-70498974D01*
X213943280Y-70324691D01*
X213783556Y-70177044D01*
X213599599Y-70060976D01*
X213397572Y-69980376D01*
X213366453Y-69974186D01*
X213303544Y-69941278D01*
X213268412Y-69879583D01*
X213272212Y-69808689D01*
X213313738Y-69751103D01*
X213350534Y-69731294D01*
X213537963Y-69667671D01*
X213537968Y-69667669D01*
X213543435Y-69665813D01*
X213554719Y-69659494D01*
X213653676Y-69604075D01*
X213733213Y-69559532D01*
X213900446Y-69420446D01*
X214039532Y-69253213D01*
X214134653Y-69083363D01*
X214142989Y-69068478D01*
X214142990Y-69068476D01*
X214145813Y-69063435D01*
X214147669Y-69057968D01*
X214147671Y-69057963D01*
X214213874Y-68862935D01*
X214213875Y-68862930D01*
X214215730Y-68857466D01*
X214246941Y-68642205D01*
X214248570Y-68580000D01*
X214228667Y-68363400D01*
X214225428Y-68351913D01*
X214171195Y-68159619D01*
X214169626Y-68154055D01*
X214073423Y-67958974D01*
X214050472Y-67928238D01*
X213946733Y-67789315D01*
X213946732Y-67789314D01*
X213943280Y-67784691D01*
X213870772Y-67717665D01*
X213787796Y-67640963D01*
X213787793Y-67640961D01*
X213783556Y-67637044D01*
X213599599Y-67520976D01*
X213397572Y-67440376D01*
X213366453Y-67434186D01*
X213303544Y-67401278D01*
X213268412Y-67339583D01*
X213272212Y-67268689D01*
X213313738Y-67211103D01*
X213350534Y-67191294D01*
X213537963Y-67127671D01*
X213537968Y-67127669D01*
X213543435Y-67125813D01*
X213549296Y-67122531D01*
X213684158Y-67047004D01*
X213733213Y-67019532D01*
X213900446Y-66880446D01*
X214039532Y-66713213D01*
X214145813Y-66523435D01*
X214147669Y-66517968D01*
X214147671Y-66517963D01*
X214213874Y-66322935D01*
X214213875Y-66322930D01*
X214215730Y-66317466D01*
X214246941Y-66102205D01*
X214248570Y-66040000D01*
X214246242Y-66014666D01*
X237872717Y-66014666D01*
X237886181Y-66220088D01*
X237887981Y-66231456D01*
X237938657Y-66430990D01*
X237942495Y-66441828D01*
X238028684Y-66628786D01*
X238034440Y-66638755D01*
X238051972Y-66663563D01*
X238062563Y-66671954D01*
X238075862Y-66664927D01*
X238687979Y-66052811D01*
X238694356Y-66041132D01*
X239424408Y-66041132D01*
X239424539Y-66042966D01*
X239428790Y-66049580D01*
X240045344Y-66666133D01*
X240057719Y-66672890D01*
X240064299Y-66667964D01*
X240142531Y-66528272D01*
X240147210Y-66517763D01*
X240213384Y-66322823D01*
X240216072Y-66311627D01*
X240245907Y-66105853D01*
X240246537Y-66098470D01*
X240247971Y-66043704D01*
X240247728Y-66036305D01*
X240228703Y-65829246D01*
X240226606Y-65817932D01*
X240170725Y-65619794D01*
X240166603Y-65609055D01*
X240075548Y-65424414D01*
X240069659Y-65414805D01*
X240058458Y-65406399D01*
X240046042Y-65413169D01*
X239432021Y-66027189D01*
X239424408Y-66041132D01*
X238694356Y-66041132D01*
X238695592Y-66038868D01*
X238695461Y-66037034D01*
X238691210Y-66030420D01*
X238073004Y-65412215D01*
X238060629Y-65405458D01*
X238054663Y-65409924D01*
X237965060Y-65580230D01*
X237960655Y-65590864D01*
X237899607Y-65787470D01*
X237897215Y-65798724D01*
X237873018Y-66003165D01*
X237872717Y-66014666D01*
X214246242Y-66014666D01*
X214228667Y-65823400D01*
X214169626Y-65614055D01*
X214073423Y-65418974D01*
X213943280Y-65244691D01*
X213783556Y-65097044D01*
X213599599Y-64980976D01*
X213397572Y-64900376D01*
X213366453Y-64894186D01*
X213303544Y-64861278D01*
X213268412Y-64799583D01*
X213272212Y-64728689D01*
X213313738Y-64671103D01*
X213350534Y-64651294D01*
X213537963Y-64587671D01*
X213537968Y-64587669D01*
X213543435Y-64585813D01*
X213733213Y-64479532D01*
X213900446Y-64340446D01*
X214039532Y-64173213D01*
X214145813Y-63983435D01*
X214147669Y-63977968D01*
X214147671Y-63977963D01*
X214213874Y-63782935D01*
X214213875Y-63782930D01*
X214215730Y-63777466D01*
X214246941Y-63562205D01*
X214248570Y-63500000D01*
X214245711Y-63468887D01*
X237871837Y-63468887D01*
X237886063Y-63685933D01*
X237887484Y-63691529D01*
X237887485Y-63691534D01*
X237938184Y-63891158D01*
X237939605Y-63896753D01*
X238030668Y-64094285D01*
X238156204Y-64271914D01*
X238312009Y-64423692D01*
X238492863Y-64544536D01*
X238498171Y-64546817D01*
X238498172Y-64546817D01*
X238687409Y-64628119D01*
X238687412Y-64628120D01*
X238692712Y-64630397D01*
X238758875Y-64645368D01*
X238820901Y-64679911D01*
X238854405Y-64742504D01*
X238848751Y-64813275D01*
X238805732Y-64869755D01*
X238763677Y-64889968D01*
X238747082Y-64894415D01*
X238553940Y-64965669D01*
X238543562Y-64970619D01*
X238437665Y-65033621D01*
X238428067Y-65043954D01*
X238431553Y-65052342D01*
X239047189Y-65667979D01*
X239061132Y-65675592D01*
X239062966Y-65675461D01*
X239069580Y-65671210D01*
X239684662Y-65056127D01*
X239691419Y-65043752D01*
X239685389Y-65035696D01*
X239604256Y-64984505D01*
X239594008Y-64979284D01*
X239402799Y-64902999D01*
X239391762Y-64899730D01*
X239365507Y-64894507D01*
X239302598Y-64861599D01*
X239267466Y-64799904D01*
X239271266Y-64729009D01*
X239312792Y-64671423D01*
X239349588Y-64651615D01*
X239368690Y-64645131D01*
X239412095Y-64630397D01*
X239537963Y-64587671D01*
X239537968Y-64587669D01*
X239543435Y-64585813D01*
X239733213Y-64479532D01*
X239900446Y-64340446D01*
X240039532Y-64173213D01*
X240145813Y-63983435D01*
X240147669Y-63977968D01*
X240147671Y-63977963D01*
X240213874Y-63782935D01*
X240213875Y-63782930D01*
X240215730Y-63777466D01*
X240246941Y-63562205D01*
X240248570Y-63500000D01*
X240228667Y-63283400D01*
X240169626Y-63074055D01*
X240073423Y-62878974D01*
X239943280Y-62704691D01*
X239783556Y-62557044D01*
X239599599Y-62440976D01*
X239397572Y-62360376D01*
X239366453Y-62354186D01*
X239303544Y-62321278D01*
X239268412Y-62259583D01*
X239272212Y-62188689D01*
X239313738Y-62131103D01*
X239350534Y-62111294D01*
X239537963Y-62047671D01*
X239537968Y-62047669D01*
X239543435Y-62045813D01*
X239733213Y-61939532D01*
X239900446Y-61800446D01*
X240039532Y-61633213D01*
X240145813Y-61443435D01*
X240147669Y-61437968D01*
X240147671Y-61437963D01*
X240213874Y-61242935D01*
X240213875Y-61242930D01*
X240215730Y-61237466D01*
X240246941Y-61022205D01*
X240248570Y-60960000D01*
X240228667Y-60743400D01*
X240223619Y-60725499D01*
X240176969Y-60560092D01*
X240169626Y-60534055D01*
X240073423Y-60338974D01*
X240044389Y-60300092D01*
X239946733Y-60169315D01*
X239946732Y-60169314D01*
X239943280Y-60164691D01*
X239939044Y-60160775D01*
X239787796Y-60020963D01*
X239787793Y-60020961D01*
X239783556Y-60017044D01*
X239599599Y-59900976D01*
X239397572Y-59820376D01*
X239366453Y-59814186D01*
X239303544Y-59781278D01*
X239268412Y-59719583D01*
X239272212Y-59648689D01*
X239313738Y-59591103D01*
X239350534Y-59571294D01*
X239537963Y-59507671D01*
X239537968Y-59507669D01*
X239543435Y-59505813D01*
X239733213Y-59399532D01*
X239900446Y-59260446D01*
X240039532Y-59093213D01*
X240145813Y-58903435D01*
X240147669Y-58897968D01*
X240147671Y-58897963D01*
X240213874Y-58702935D01*
X240213875Y-58702930D01*
X240215730Y-58697466D01*
X240246941Y-58482205D01*
X240248570Y-58420000D01*
X240228667Y-58203400D01*
X240219570Y-58171142D01*
X240185180Y-58049205D01*
X240169626Y-57994055D01*
X240073423Y-57798974D01*
X240044065Y-57759658D01*
X239946733Y-57629315D01*
X239946732Y-57629314D01*
X239943280Y-57624691D01*
X239922261Y-57605261D01*
X239787796Y-57480963D01*
X239787793Y-57480961D01*
X239783556Y-57477044D01*
X239599599Y-57360976D01*
X239397572Y-57280376D01*
X239366453Y-57274186D01*
X239303544Y-57241278D01*
X239268412Y-57179583D01*
X239272212Y-57108689D01*
X239313738Y-57051103D01*
X239350534Y-57031294D01*
X239537963Y-56967671D01*
X239537968Y-56967669D01*
X239543435Y-56965813D01*
X239733213Y-56859532D01*
X239900446Y-56720446D01*
X240039532Y-56553213D01*
X240145813Y-56363435D01*
X240147669Y-56357968D01*
X240147671Y-56357963D01*
X240213874Y-56162935D01*
X240213875Y-56162930D01*
X240215730Y-56157466D01*
X240246941Y-55942205D01*
X240248570Y-55880000D01*
X240228667Y-55663400D01*
X240212636Y-55606556D01*
X240171195Y-55459619D01*
X240169626Y-55454055D01*
X240073423Y-55258974D01*
X239943280Y-55084691D01*
X239797097Y-54949561D01*
X239787796Y-54940963D01*
X239787793Y-54940961D01*
X239783556Y-54937044D01*
X239599599Y-54820976D01*
X239397572Y-54740376D01*
X239366453Y-54734186D01*
X239303544Y-54701278D01*
X239268412Y-54639583D01*
X239272212Y-54568689D01*
X239313738Y-54511103D01*
X239350534Y-54491294D01*
X239537963Y-54427671D01*
X239537968Y-54427669D01*
X239543435Y-54425813D01*
X239733213Y-54319532D01*
X239900446Y-54180446D01*
X240039532Y-54013213D01*
X240145813Y-53823435D01*
X240147669Y-53817968D01*
X240147671Y-53817963D01*
X240213874Y-53622935D01*
X240213875Y-53622930D01*
X240215730Y-53617466D01*
X240246941Y-53402205D01*
X240248570Y-53340000D01*
X240228667Y-53123400D01*
X240213292Y-53068882D01*
X240171195Y-52919619D01*
X240169626Y-52914055D01*
X240073423Y-52718974D01*
X240065594Y-52708489D01*
X239946733Y-52549315D01*
X239946732Y-52549314D01*
X239943280Y-52544691D01*
X239797097Y-52409561D01*
X239787796Y-52400963D01*
X239787793Y-52400961D01*
X239783556Y-52397044D01*
X239599599Y-52280976D01*
X239565104Y-52267214D01*
X239461873Y-52226029D01*
X239406014Y-52182208D01*
X239382713Y-52115144D01*
X239399369Y-52046129D01*
X239450693Y-51997075D01*
X239508563Y-51982999D01*
X239779669Y-51982999D01*
X239786490Y-51982629D01*
X239837352Y-51977105D01*
X239852604Y-51973479D01*
X239973054Y-51928324D01*
X239988649Y-51919786D01*
X240090724Y-51843285D01*
X240103285Y-51830724D01*
X240179786Y-51728649D01*
X240188324Y-51713054D01*
X240233478Y-51592606D01*
X240237105Y-51577351D01*
X240242631Y-51526486D01*
X240243000Y-51519672D01*
X240243000Y-51072115D01*
X240238525Y-51056876D01*
X240237135Y-51055671D01*
X240229452Y-51054000D01*
X237895116Y-51054000D01*
X237879877Y-51058475D01*
X237878672Y-51059865D01*
X237877001Y-51067548D01*
X237877001Y-51519669D01*
X237877371Y-51526490D01*
X237882895Y-51577352D01*
X237886521Y-51592604D01*
X237931676Y-51713054D01*
X237940214Y-51728649D01*
X238016715Y-51830724D01*
X238029276Y-51843285D01*
X238131351Y-51919786D01*
X238146946Y-51928324D01*
X238267394Y-51973478D01*
X238282649Y-51977105D01*
X238333514Y-51982631D01*
X238340328Y-51983000D01*
X238613129Y-51983000D01*
X238681250Y-52003002D01*
X238727743Y-52056658D01*
X238737847Y-52126932D01*
X238708353Y-52191512D01*
X238656740Y-52227211D01*
X238548307Y-52267214D01*
X238361376Y-52378427D01*
X238197842Y-52521842D01*
X238194270Y-52526373D01*
X238082934Y-52667602D01*
X238063181Y-52692658D01*
X237961905Y-52885154D01*
X237960192Y-52890671D01*
X237905578Y-53066556D01*
X237897403Y-53092882D01*
X237871837Y-53308887D01*
X237886063Y-53525933D01*
X237887484Y-53531529D01*
X237887485Y-53531534D01*
X237929398Y-53696565D01*
X237939605Y-53736753D01*
X237942022Y-53741996D01*
X238011359Y-53892401D01*
X238030668Y-53934285D01*
X238156204Y-54111914D01*
X238160346Y-54115949D01*
X238262656Y-54215615D01*
X238312009Y-54263692D01*
X238492863Y-54384536D01*
X238498171Y-54386817D01*
X238498172Y-54386817D01*
X238687409Y-54468119D01*
X238687412Y-54468120D01*
X238692712Y-54470397D01*
X238741995Y-54481549D01*
X238757825Y-54485131D01*
X238819851Y-54519675D01*
X238853356Y-54582268D01*
X238847700Y-54653039D01*
X238804681Y-54709518D01*
X238762626Y-54729731D01*
X238758073Y-54730951D01*
X238752375Y-54731930D01*
X238548307Y-54807214D01*
X238361376Y-54918427D01*
X238197842Y-55061842D01*
X238194270Y-55066373D01*
X238073216Y-55219929D01*
X238063181Y-55232658D01*
X237961905Y-55425154D01*
X237960192Y-55430671D01*
X237905578Y-55606556D01*
X237897403Y-55632882D01*
X237871837Y-55848887D01*
X237886063Y-56065933D01*
X237887484Y-56071529D01*
X237887485Y-56071534D01*
X237916248Y-56184785D01*
X237939605Y-56276753D01*
X238030668Y-56474285D01*
X238156204Y-56651914D01*
X238312009Y-56803692D01*
X238492863Y-56924536D01*
X238498171Y-56926817D01*
X238498172Y-56926817D01*
X238687409Y-57008119D01*
X238687412Y-57008120D01*
X238692712Y-57010397D01*
X238741995Y-57021549D01*
X238757825Y-57025131D01*
X238819851Y-57059675D01*
X238853356Y-57122268D01*
X238847700Y-57193039D01*
X238804681Y-57249518D01*
X238762626Y-57269731D01*
X238758073Y-57270951D01*
X238752375Y-57271930D01*
X238548307Y-57347214D01*
X238361376Y-57458427D01*
X238197842Y-57601842D01*
X238194270Y-57606373D01*
X238115729Y-57706002D01*
X238063181Y-57772658D01*
X237961905Y-57965154D01*
X237960192Y-57970671D01*
X237901844Y-58158581D01*
X237897403Y-58172882D01*
X237871837Y-58388887D01*
X237886063Y-58605933D01*
X237887484Y-58611529D01*
X237887485Y-58611534D01*
X237938184Y-58811158D01*
X237939605Y-58816753D01*
X238030668Y-59014285D01*
X238156204Y-59191914D01*
X238312009Y-59343692D01*
X238492863Y-59464536D01*
X238498171Y-59466817D01*
X238498172Y-59466817D01*
X238687409Y-59548119D01*
X238687412Y-59548120D01*
X238692712Y-59550397D01*
X238741995Y-59561549D01*
X238757825Y-59565131D01*
X238819851Y-59599675D01*
X238853356Y-59662268D01*
X238847700Y-59733039D01*
X238804681Y-59789518D01*
X238762626Y-59809731D01*
X238758073Y-59810951D01*
X238752375Y-59811930D01*
X238548307Y-59887214D01*
X238361376Y-59998427D01*
X238197842Y-60141842D01*
X238194270Y-60146373D01*
X238157999Y-60192383D01*
X238063181Y-60312658D01*
X237961905Y-60505154D01*
X237897403Y-60712882D01*
X237871837Y-60928887D01*
X237886063Y-61145933D01*
X237887484Y-61151529D01*
X237887485Y-61151534D01*
X237938184Y-61351158D01*
X237939605Y-61356753D01*
X238030668Y-61554285D01*
X238156204Y-61731914D01*
X238312009Y-61883692D01*
X238492863Y-62004536D01*
X238498171Y-62006817D01*
X238498172Y-62006817D01*
X238687409Y-62088119D01*
X238687412Y-62088120D01*
X238692712Y-62090397D01*
X238741995Y-62101549D01*
X238757825Y-62105131D01*
X238819851Y-62139675D01*
X238853356Y-62202268D01*
X238847700Y-62273039D01*
X238804681Y-62329518D01*
X238762626Y-62349731D01*
X238758073Y-62350951D01*
X238752375Y-62351930D01*
X238548307Y-62427214D01*
X238361376Y-62538427D01*
X238197842Y-62681842D01*
X238063181Y-62852658D01*
X237961905Y-63045154D01*
X237897403Y-63252882D01*
X237871837Y-63468887D01*
X214245711Y-63468887D01*
X214228667Y-63283400D01*
X214169626Y-63074055D01*
X214073423Y-62878974D01*
X213943280Y-62704691D01*
X213783556Y-62557044D01*
X213599599Y-62440976D01*
X213397572Y-62360376D01*
X213366453Y-62354186D01*
X213303544Y-62321278D01*
X213268412Y-62259583D01*
X213272212Y-62188689D01*
X213313738Y-62131103D01*
X213350534Y-62111294D01*
X213537963Y-62047671D01*
X213537968Y-62047669D01*
X213543435Y-62045813D01*
X213733213Y-61939532D01*
X213900446Y-61800446D01*
X214039532Y-61633213D01*
X214145813Y-61443435D01*
X214147669Y-61437968D01*
X214147671Y-61437963D01*
X214213874Y-61242935D01*
X214213875Y-61242930D01*
X214215730Y-61237466D01*
X214246941Y-61022205D01*
X214248570Y-60960000D01*
X214228667Y-60743400D01*
X214223619Y-60725499D01*
X214176969Y-60560092D01*
X214169626Y-60534055D01*
X214073423Y-60338974D01*
X214044389Y-60300092D01*
X213946733Y-60169315D01*
X213946732Y-60169314D01*
X213943280Y-60164691D01*
X213939044Y-60160775D01*
X213787796Y-60020963D01*
X213787793Y-60020961D01*
X213783556Y-60017044D01*
X213599599Y-59900976D01*
X213397572Y-59820376D01*
X213366453Y-59814186D01*
X213303544Y-59781278D01*
X213268412Y-59719583D01*
X213272212Y-59648689D01*
X213313738Y-59591103D01*
X213350534Y-59571294D01*
X213537963Y-59507671D01*
X213537968Y-59507669D01*
X213543435Y-59505813D01*
X213733213Y-59399532D01*
X213900446Y-59260446D01*
X214039532Y-59093213D01*
X214145813Y-58903435D01*
X214147669Y-58897968D01*
X214147671Y-58897963D01*
X214213874Y-58702935D01*
X214213875Y-58702930D01*
X214215730Y-58697466D01*
X214246941Y-58482205D01*
X214248570Y-58420000D01*
X214228667Y-58203400D01*
X214219570Y-58171142D01*
X214185180Y-58049205D01*
X214169626Y-57994055D01*
X214073423Y-57798974D01*
X214044065Y-57759658D01*
X213946733Y-57629315D01*
X213946732Y-57629314D01*
X213943280Y-57624691D01*
X213922261Y-57605261D01*
X213787796Y-57480963D01*
X213787793Y-57480961D01*
X213783556Y-57477044D01*
X213599599Y-57360976D01*
X213397572Y-57280376D01*
X213366453Y-57274186D01*
X213303544Y-57241278D01*
X213268412Y-57179583D01*
X213272212Y-57108689D01*
X213313738Y-57051103D01*
X213350534Y-57031294D01*
X213537963Y-56967671D01*
X213537968Y-56967669D01*
X213543435Y-56965813D01*
X213733213Y-56859532D01*
X213900446Y-56720446D01*
X214039532Y-56553213D01*
X214145813Y-56363435D01*
X214147669Y-56357968D01*
X214147671Y-56357963D01*
X214213874Y-56162935D01*
X214213875Y-56162930D01*
X214215730Y-56157466D01*
X214246941Y-55942205D01*
X214248570Y-55880000D01*
X214228667Y-55663400D01*
X214212636Y-55606556D01*
X214171195Y-55459619D01*
X214169626Y-55454055D01*
X214073423Y-55258974D01*
X213943280Y-55084691D01*
X213797097Y-54949561D01*
X213787796Y-54940963D01*
X213787793Y-54940961D01*
X213783556Y-54937044D01*
X213599599Y-54820976D01*
X213397572Y-54740376D01*
X213366453Y-54734186D01*
X213303544Y-54701278D01*
X213268412Y-54639583D01*
X213272212Y-54568689D01*
X213313738Y-54511103D01*
X213350534Y-54491294D01*
X213537963Y-54427671D01*
X213537968Y-54427669D01*
X213543435Y-54425813D01*
X213733213Y-54319532D01*
X213900446Y-54180446D01*
X214039532Y-54013213D01*
X214145813Y-53823435D01*
X214147669Y-53817968D01*
X214147671Y-53817963D01*
X214213874Y-53622935D01*
X214213875Y-53622930D01*
X214215730Y-53617466D01*
X214246941Y-53402205D01*
X214248570Y-53340000D01*
X214228667Y-53123400D01*
X214213292Y-53068882D01*
X214171195Y-52919619D01*
X214169626Y-52914055D01*
X214073423Y-52718974D01*
X214065594Y-52708489D01*
X213946733Y-52549315D01*
X213946732Y-52549314D01*
X213943280Y-52544691D01*
X213797097Y-52409561D01*
X213787796Y-52400963D01*
X213787793Y-52400961D01*
X213783556Y-52397044D01*
X213599599Y-52280976D01*
X213397572Y-52200376D01*
X213366453Y-52194186D01*
X213303544Y-52161278D01*
X213268412Y-52099583D01*
X213272212Y-52028689D01*
X213313738Y-51971103D01*
X213350534Y-51951294D01*
X213537963Y-51887671D01*
X213537968Y-51887669D01*
X213543435Y-51885813D01*
X213600813Y-51853680D01*
X213641803Y-51830724D01*
X213733213Y-51779532D01*
X213900446Y-51640446D01*
X214039532Y-51473213D01*
X214145813Y-51283435D01*
X214147669Y-51277968D01*
X214147671Y-51277963D01*
X214213874Y-51082935D01*
X214213875Y-51082930D01*
X214215730Y-51077466D01*
X214246941Y-50862205D01*
X214248570Y-50800000D01*
X214228667Y-50583400D01*
X214213010Y-50527885D01*
X237877000Y-50527885D01*
X237881475Y-50543124D01*
X237882865Y-50544329D01*
X237890548Y-50546000D01*
X238787885Y-50546000D01*
X238803124Y-50541525D01*
X238804329Y-50540135D01*
X238806000Y-50532452D01*
X238806000Y-50527885D01*
X239314000Y-50527885D01*
X239318475Y-50543124D01*
X239319865Y-50544329D01*
X239327548Y-50546000D01*
X240224884Y-50546000D01*
X240240123Y-50541525D01*
X240241328Y-50540135D01*
X240242999Y-50532452D01*
X240242999Y-50080331D01*
X240242629Y-50073510D01*
X240237105Y-50022648D01*
X240233479Y-50007396D01*
X240188324Y-49886946D01*
X240179786Y-49871351D01*
X240103285Y-49769276D01*
X240090724Y-49756715D01*
X239988649Y-49680214D01*
X239973054Y-49671676D01*
X239852606Y-49626522D01*
X239837351Y-49622895D01*
X239786486Y-49617369D01*
X239779672Y-49617000D01*
X239332115Y-49617000D01*
X239316876Y-49621475D01*
X239315671Y-49622865D01*
X239314000Y-49630548D01*
X239314000Y-50527885D01*
X238806000Y-50527885D01*
X238806000Y-49635116D01*
X238801525Y-49619877D01*
X238800135Y-49618672D01*
X238792452Y-49617001D01*
X238340331Y-49617001D01*
X238333510Y-49617371D01*
X238282648Y-49622895D01*
X238267396Y-49626521D01*
X238146946Y-49671676D01*
X238131351Y-49680214D01*
X238029276Y-49756715D01*
X238016715Y-49769276D01*
X237940214Y-49871351D01*
X237931676Y-49886946D01*
X237886522Y-50007394D01*
X237882895Y-50022649D01*
X237877369Y-50073514D01*
X237877000Y-50080328D01*
X237877000Y-50527885D01*
X214213010Y-50527885D01*
X214169626Y-50374055D01*
X214073423Y-50178974D01*
X213994673Y-50073514D01*
X213946733Y-50009315D01*
X213946732Y-50009314D01*
X213943280Y-50004691D01*
X213815904Y-49886946D01*
X213787796Y-49860963D01*
X213787793Y-49860961D01*
X213783556Y-49857044D01*
X213599599Y-49740976D01*
X213397572Y-49660376D01*
X213208993Y-49622865D01*
X213189905Y-49619068D01*
X213189904Y-49619068D01*
X213184239Y-49617941D01*
X213178464Y-49617865D01*
X213178460Y-49617865D01*
X213069419Y-49616438D01*
X212966746Y-49615094D01*
X212961049Y-49616073D01*
X212961048Y-49616073D01*
X212758065Y-49650952D01*
X212758062Y-49650953D01*
X212752375Y-49651930D01*
X212548307Y-49727214D01*
X212361376Y-49838427D01*
X212197842Y-49981842D01*
X212194270Y-49986373D01*
X212095486Y-50111680D01*
X212063181Y-50152658D01*
X211961905Y-50345154D01*
X211960192Y-50350671D01*
X211900059Y-50544329D01*
X211897403Y-50552882D01*
X211871837Y-50768887D01*
X211886063Y-50985933D01*
X211887484Y-50991529D01*
X211887485Y-50991534D01*
X211911477Y-51086000D01*
X211939605Y-51196753D01*
X212030668Y-51394285D01*
X212034001Y-51399001D01*
X212124099Y-51526486D01*
X212156204Y-51571914D01*
X212160346Y-51575949D01*
X212178876Y-51594000D01*
X212312009Y-51723692D01*
X212492863Y-51844536D01*
X212498171Y-51846817D01*
X212498172Y-51846817D01*
X212687409Y-51928119D01*
X212687412Y-51928120D01*
X212692712Y-51930397D01*
X212730590Y-51938968D01*
X212757825Y-51945131D01*
X212819851Y-51979675D01*
X212853356Y-52042268D01*
X212847700Y-52113039D01*
X212804681Y-52169518D01*
X212762626Y-52189731D01*
X212758073Y-52190951D01*
X212752375Y-52191930D01*
X212548307Y-52267214D01*
X212361376Y-52378427D01*
X212197842Y-52521842D01*
X212194270Y-52526373D01*
X212082934Y-52667602D01*
X212063181Y-52692658D01*
X211961905Y-52885154D01*
X211960192Y-52890671D01*
X211905578Y-53066556D01*
X211897403Y-53092882D01*
X211871837Y-53308887D01*
X211886063Y-53525933D01*
X211887484Y-53531529D01*
X211887485Y-53531534D01*
X211929398Y-53696565D01*
X211939605Y-53736753D01*
X211942022Y-53741996D01*
X212011359Y-53892401D01*
X212030668Y-53934285D01*
X212156204Y-54111914D01*
X212160346Y-54115949D01*
X212262656Y-54215615D01*
X212312009Y-54263692D01*
X212492863Y-54384536D01*
X212498171Y-54386817D01*
X212498172Y-54386817D01*
X212687409Y-54468119D01*
X212687412Y-54468120D01*
X212692712Y-54470397D01*
X212741995Y-54481549D01*
X212757825Y-54485131D01*
X212819851Y-54519675D01*
X212853356Y-54582268D01*
X212847700Y-54653039D01*
X212804681Y-54709518D01*
X212762626Y-54729731D01*
X212758073Y-54730951D01*
X212752375Y-54731930D01*
X212548307Y-54807214D01*
X212361376Y-54918427D01*
X212197842Y-55061842D01*
X212194270Y-55066373D01*
X212073216Y-55219929D01*
X212063181Y-55232658D01*
X211961905Y-55425154D01*
X211960192Y-55430671D01*
X211905578Y-55606556D01*
X211897403Y-55632882D01*
X211871837Y-55848887D01*
X211886063Y-56065933D01*
X211887484Y-56071529D01*
X211887485Y-56071534D01*
X211916248Y-56184785D01*
X211939605Y-56276753D01*
X212030668Y-56474285D01*
X212156204Y-56651914D01*
X212312009Y-56803692D01*
X212492863Y-56924536D01*
X212498171Y-56926817D01*
X212498172Y-56926817D01*
X212687409Y-57008119D01*
X212687412Y-57008120D01*
X212692712Y-57010397D01*
X212741995Y-57021549D01*
X212757825Y-57025131D01*
X212819851Y-57059675D01*
X212853356Y-57122268D01*
X212847700Y-57193039D01*
X212804681Y-57249518D01*
X212762626Y-57269731D01*
X212758073Y-57270951D01*
X212752375Y-57271930D01*
X212548307Y-57347214D01*
X212361376Y-57458427D01*
X212197842Y-57601842D01*
X212194270Y-57606373D01*
X212115729Y-57706002D01*
X212063181Y-57772658D01*
X211961905Y-57965154D01*
X211960192Y-57970671D01*
X211901844Y-58158581D01*
X211897403Y-58172882D01*
X211871837Y-58388887D01*
X211886063Y-58605933D01*
X211887484Y-58611529D01*
X211887485Y-58611534D01*
X211938184Y-58811158D01*
X211939605Y-58816753D01*
X212030668Y-59014285D01*
X212156204Y-59191914D01*
X212312009Y-59343692D01*
X212492863Y-59464536D01*
X212498171Y-59466817D01*
X212498172Y-59466817D01*
X212687409Y-59548119D01*
X212687412Y-59548120D01*
X212692712Y-59550397D01*
X212741995Y-59561549D01*
X212757825Y-59565131D01*
X212819851Y-59599675D01*
X212853356Y-59662268D01*
X212847700Y-59733039D01*
X212804681Y-59789518D01*
X212762626Y-59809731D01*
X212758073Y-59810951D01*
X212752375Y-59811930D01*
X212548307Y-59887214D01*
X212361376Y-59998427D01*
X212197842Y-60141842D01*
X212194270Y-60146373D01*
X212157999Y-60192383D01*
X212063181Y-60312658D01*
X211961905Y-60505154D01*
X211897403Y-60712882D01*
X211871837Y-60928887D01*
X211886063Y-61145933D01*
X211887484Y-61151529D01*
X211887485Y-61151534D01*
X211938184Y-61351158D01*
X211939605Y-61356753D01*
X212030668Y-61554285D01*
X212156204Y-61731914D01*
X212312009Y-61883692D01*
X212492863Y-62004536D01*
X212498171Y-62006817D01*
X212498172Y-62006817D01*
X212687409Y-62088119D01*
X212687412Y-62088120D01*
X212692712Y-62090397D01*
X212741995Y-62101549D01*
X212757825Y-62105131D01*
X212819851Y-62139675D01*
X212853356Y-62202268D01*
X212847700Y-62273039D01*
X212804681Y-62329518D01*
X212762626Y-62349731D01*
X212758073Y-62350951D01*
X212752375Y-62351930D01*
X212548307Y-62427214D01*
X212361376Y-62538427D01*
X212197842Y-62681842D01*
X212063181Y-62852658D01*
X211961905Y-63045154D01*
X211897403Y-63252882D01*
X211871837Y-63468887D01*
X211886063Y-63685933D01*
X211887484Y-63691529D01*
X211887485Y-63691534D01*
X211938184Y-63891158D01*
X211939605Y-63896753D01*
X212030668Y-64094285D01*
X212156204Y-64271914D01*
X212312009Y-64423692D01*
X212492863Y-64544536D01*
X212498171Y-64546817D01*
X212498172Y-64546817D01*
X212687409Y-64628119D01*
X212687412Y-64628120D01*
X212692712Y-64630397D01*
X212741995Y-64641549D01*
X212757825Y-64645131D01*
X212819851Y-64679675D01*
X212853356Y-64742268D01*
X212847700Y-64813039D01*
X212804681Y-64869518D01*
X212762626Y-64889731D01*
X212758073Y-64890951D01*
X212752375Y-64891930D01*
X212548307Y-64967214D01*
X212361376Y-65078427D01*
X212197842Y-65221842D01*
X212063181Y-65392658D01*
X212060493Y-65397767D01*
X212012543Y-65488906D01*
X211961905Y-65585154D01*
X211897403Y-65792882D01*
X211871837Y-66008887D01*
X211886063Y-66225933D01*
X211887484Y-66231529D01*
X211887485Y-66231534D01*
X211931390Y-66404408D01*
X211939605Y-66436753D01*
X212030668Y-66634285D01*
X212156204Y-66811914D01*
X212312009Y-66963692D01*
X212492863Y-67084536D01*
X212498171Y-67086817D01*
X212498172Y-67086817D01*
X212687409Y-67168119D01*
X212687412Y-67168120D01*
X212692712Y-67170397D01*
X212741872Y-67181521D01*
X212757825Y-67185131D01*
X212819851Y-67219675D01*
X212853356Y-67282268D01*
X212847700Y-67353039D01*
X212804681Y-67409518D01*
X212762626Y-67429731D01*
X212758073Y-67430951D01*
X212752375Y-67431930D01*
X212548307Y-67507214D01*
X212361376Y-67618427D01*
X212197842Y-67761842D01*
X212194270Y-67766373D01*
X212074151Y-67918743D01*
X212063181Y-67932658D01*
X211961905Y-68125154D01*
X211960192Y-68130671D01*
X211900059Y-68324329D01*
X211897403Y-68332882D01*
X211871837Y-68548887D01*
X211886063Y-68765933D01*
X211887484Y-68771529D01*
X211887485Y-68771534D01*
X211936412Y-68964181D01*
X211939605Y-68976753D01*
X211942022Y-68981996D01*
X211981891Y-69068478D01*
X212030668Y-69174285D01*
X212034001Y-69179001D01*
X212128078Y-69312116D01*
X212156204Y-69351914D01*
X212160346Y-69355949D01*
X212213317Y-69407551D01*
X212312009Y-69503692D01*
X212492863Y-69624536D01*
X212498171Y-69626817D01*
X212498172Y-69626817D01*
X212687409Y-69708119D01*
X212687412Y-69708120D01*
X212692712Y-69710397D01*
X212741995Y-69721549D01*
X212757825Y-69725131D01*
X212819851Y-69759675D01*
X212853356Y-69822268D01*
X212847700Y-69893039D01*
X212804681Y-69949518D01*
X212762626Y-69969731D01*
X212758073Y-69970951D01*
X212752375Y-69971930D01*
X212548307Y-70047214D01*
X212361376Y-70158427D01*
X212197842Y-70301842D01*
X212194270Y-70306373D01*
X212090104Y-70438506D01*
X212032222Y-70479619D01*
X211991154Y-70486500D01*
X211934594Y-70486500D01*
X211866473Y-70466498D01*
X211845503Y-70449599D01*
X210984440Y-69588535D01*
X210950416Y-69526225D01*
X210955481Y-69455409D01*
X210976613Y-69420145D01*
X210976133Y-69419772D01*
X210976135Y-69419770D01*
X210978615Y-69416573D01*
X210986320Y-69407551D01*
X211011159Y-69381100D01*
X211016586Y-69375321D01*
X211020405Y-69368375D01*
X211020407Y-69368372D01*
X211026348Y-69357566D01*
X211037199Y-69341047D01*
X211044758Y-69331301D01*
X211049614Y-69325041D01*
X211052759Y-69317772D01*
X211052762Y-69317768D01*
X211067174Y-69284463D01*
X211072391Y-69273813D01*
X211093695Y-69235060D01*
X211098733Y-69215437D01*
X211105137Y-69196734D01*
X211110033Y-69185420D01*
X211110033Y-69185419D01*
X211113181Y-69178145D01*
X211114420Y-69170322D01*
X211114423Y-69170312D01*
X211120099Y-69134476D01*
X211122505Y-69122856D01*
X211131528Y-69087711D01*
X211131528Y-69087710D01*
X211133500Y-69080030D01*
X211133500Y-69059776D01*
X211135051Y-69040065D01*
X211136980Y-69027886D01*
X211138220Y-69020057D01*
X211134059Y-68976038D01*
X211133500Y-68964181D01*
X211133500Y-60578768D01*
X211134027Y-60567585D01*
X211135702Y-60560092D01*
X211133562Y-60492001D01*
X211133500Y-60488044D01*
X211133500Y-60460144D01*
X211132996Y-60456153D01*
X211132063Y-60444311D01*
X211130923Y-60408036D01*
X211130674Y-60400111D01*
X211128462Y-60392497D01*
X211128461Y-60392492D01*
X211125023Y-60380659D01*
X211121012Y-60361295D01*
X211119467Y-60349064D01*
X211118474Y-60341203D01*
X211115557Y-60333836D01*
X211115556Y-60333831D01*
X211102198Y-60300092D01*
X211098354Y-60288865D01*
X211088230Y-60254022D01*
X211086018Y-60246407D01*
X211075707Y-60228972D01*
X211067012Y-60211224D01*
X211059552Y-60192383D01*
X211033564Y-60156613D01*
X211027048Y-60146693D01*
X211008580Y-60115465D01*
X211008578Y-60115462D01*
X211004542Y-60108638D01*
X210990221Y-60094317D01*
X210977380Y-60079283D01*
X210970131Y-60069306D01*
X210965472Y-60062893D01*
X210931395Y-60034702D01*
X210922616Y-60026712D01*
X205016152Y-54120247D01*
X205008612Y-54111961D01*
X205004500Y-54105482D01*
X204954848Y-54058856D01*
X204952007Y-54056102D01*
X204932270Y-54036365D01*
X204929073Y-54033885D01*
X204920051Y-54026180D01*
X204910977Y-54017659D01*
X204887821Y-53995914D01*
X204880875Y-53992095D01*
X204880872Y-53992093D01*
X204870066Y-53986152D01*
X204853547Y-53975301D01*
X204853083Y-53974941D01*
X204837541Y-53962886D01*
X204830272Y-53959741D01*
X204830268Y-53959738D01*
X204796963Y-53945326D01*
X204786313Y-53940109D01*
X204747560Y-53918805D01*
X204727937Y-53913767D01*
X204709234Y-53907363D01*
X204697920Y-53902467D01*
X204697919Y-53902467D01*
X204690645Y-53899319D01*
X204682822Y-53898080D01*
X204682812Y-53898077D01*
X204646976Y-53892401D01*
X204635356Y-53889995D01*
X204600211Y-53880972D01*
X204600210Y-53880972D01*
X204592530Y-53879000D01*
X204572276Y-53879000D01*
X204552565Y-53877449D01*
X204540386Y-53875520D01*
X204532557Y-53874280D01*
X204524665Y-53875026D01*
X204488539Y-53878441D01*
X204476681Y-53879000D01*
X204260854Y-53879000D01*
X204192733Y-53858998D01*
X204157641Y-53825271D01*
X204156356Y-53823435D01*
X204070249Y-53700462D01*
X203914538Y-53544751D01*
X203895663Y-53531534D01*
X203835259Y-53489239D01*
X203734154Y-53418444D01*
X203729172Y-53416121D01*
X203729167Y-53416118D01*
X203601732Y-53356695D01*
X203548447Y-53309778D01*
X203528986Y-53241501D01*
X203549528Y-53173541D01*
X203601732Y-53128305D01*
X203729167Y-53068882D01*
X203729172Y-53068879D01*
X203734154Y-53066556D01*
X203914538Y-52940249D01*
X204070249Y-52784538D01*
X204116158Y-52718974D01*
X204193399Y-52608662D01*
X204193400Y-52608660D01*
X204196556Y-52604153D01*
X204198879Y-52599171D01*
X204198882Y-52599166D01*
X204287295Y-52409561D01*
X204289620Y-52404576D01*
X204346615Y-52191871D01*
X204365807Y-51972500D01*
X204346615Y-51753129D01*
X204289620Y-51540424D01*
X204227810Y-51407872D01*
X204198882Y-51345834D01*
X204198879Y-51345829D01*
X204196556Y-51340847D01*
X204152524Y-51277963D01*
X204073408Y-51164973D01*
X204073406Y-51164970D01*
X204070249Y-51160462D01*
X203914538Y-51004751D01*
X203895663Y-50991534D01*
X203835259Y-50949239D01*
X203734154Y-50878444D01*
X203729172Y-50876121D01*
X203729167Y-50876118D01*
X203601141Y-50816419D01*
X203547856Y-50769502D01*
X203528395Y-50701224D01*
X203548937Y-50633264D01*
X203601141Y-50588029D01*
X203728916Y-50528447D01*
X203738412Y-50522964D01*
X203779648Y-50494090D01*
X203788023Y-50483612D01*
X203780957Y-50470168D01*
X203115311Y-49804521D01*
X203101368Y-49796908D01*
X203099534Y-49797039D01*
X203092920Y-49801290D01*
X202423320Y-50470891D01*
X202416893Y-50482661D01*
X202426187Y-50494675D01*
X202466588Y-50522964D01*
X202476084Y-50528447D01*
X202603859Y-50588029D01*
X202657144Y-50634946D01*
X202676605Y-50703224D01*
X202656063Y-50771184D01*
X202603859Y-50816419D01*
X202475834Y-50876118D01*
X202475829Y-50876121D01*
X202470847Y-50878444D01*
X202466340Y-50881600D01*
X202466338Y-50881601D01*
X202294973Y-51001592D01*
X202294970Y-51001594D01*
X202290462Y-51004751D01*
X202134751Y-51160462D01*
X202131594Y-51164970D01*
X202131592Y-51164973D01*
X202052476Y-51277963D01*
X202008444Y-51340847D01*
X202006121Y-51345829D01*
X202006118Y-51345834D01*
X201977190Y-51407872D01*
X201915380Y-51540424D01*
X201858385Y-51753129D01*
X201839193Y-51972500D01*
X201858385Y-52191871D01*
X201915380Y-52404576D01*
X201917705Y-52409561D01*
X202006118Y-52599166D01*
X202006121Y-52599171D01*
X202008444Y-52604153D01*
X202011600Y-52608660D01*
X202011601Y-52608662D01*
X202088843Y-52718974D01*
X202134751Y-52784538D01*
X202290462Y-52940249D01*
X202470846Y-53066556D01*
X202475828Y-53068879D01*
X202475833Y-53068882D01*
X202603268Y-53128305D01*
X202656553Y-53175222D01*
X202676014Y-53243499D01*
X202655472Y-53311459D01*
X202603268Y-53356695D01*
X202475834Y-53416118D01*
X202475829Y-53416121D01*
X202470847Y-53418444D01*
X202466340Y-53421600D01*
X202466338Y-53421601D01*
X202294973Y-53541592D01*
X202294970Y-53541594D01*
X202290462Y-53544751D01*
X202134751Y-53700462D01*
X202131594Y-53704970D01*
X202131592Y-53704973D01*
X202013042Y-53874280D01*
X202008444Y-53880847D01*
X202006121Y-53885829D01*
X202006118Y-53885834D01*
X201961565Y-53981379D01*
X201915380Y-54080424D01*
X201858385Y-54293129D01*
X201839193Y-54512500D01*
X201858385Y-54731871D01*
X201915380Y-54944576D01*
X201917705Y-54949561D01*
X202006118Y-55139166D01*
X202006121Y-55139171D01*
X202008444Y-55144153D01*
X202011600Y-55148660D01*
X202011601Y-55148662D01*
X202088843Y-55258974D01*
X202134751Y-55324538D01*
X202290462Y-55480249D01*
X202294971Y-55483406D01*
X202294973Y-55483408D01*
X202411194Y-55564787D01*
X202455522Y-55620244D01*
X202462831Y-55690864D01*
X202430800Y-55754224D01*
X202369599Y-55790209D01*
X202338923Y-55794000D01*
X202304366Y-55794000D01*
X202242184Y-55800755D01*
X202105795Y-55851885D01*
X201989239Y-55939239D01*
X201901885Y-56055795D01*
X201850755Y-56192184D01*
X201844000Y-56254366D01*
X201844000Y-56293000D01*
X201823998Y-56361121D01*
X201770342Y-56407614D01*
X201718000Y-56419000D01*
X196867095Y-56419000D01*
X196798974Y-56398998D01*
X196778000Y-56382095D01*
X192343652Y-51947747D01*
X192336112Y-51939461D01*
X192332000Y-51932982D01*
X192282348Y-51886356D01*
X192279507Y-51883602D01*
X192259770Y-51863865D01*
X192256573Y-51861385D01*
X192247551Y-51853680D01*
X192237814Y-51844536D01*
X192215321Y-51823414D01*
X192208375Y-51819595D01*
X192208372Y-51819593D01*
X192197566Y-51813652D01*
X192181047Y-51802801D01*
X192180583Y-51802441D01*
X192165041Y-51790386D01*
X192157772Y-51787241D01*
X192157768Y-51787238D01*
X192124463Y-51772826D01*
X192113813Y-51767609D01*
X192075060Y-51746305D01*
X192055437Y-51741267D01*
X192036734Y-51734863D01*
X192025420Y-51729967D01*
X192025419Y-51729967D01*
X192018145Y-51726819D01*
X192010322Y-51725580D01*
X192010312Y-51725577D01*
X191974476Y-51719901D01*
X191962856Y-51717495D01*
X191927711Y-51708472D01*
X191927710Y-51708472D01*
X191920030Y-51706500D01*
X191899776Y-51706500D01*
X191880065Y-51704949D01*
X191867886Y-51703020D01*
X191860057Y-51701780D01*
X191852165Y-51702526D01*
X191816039Y-51705941D01*
X191804181Y-51706500D01*
X186439815Y-51706500D01*
X186371694Y-51686498D01*
X186325201Y-51632842D01*
X186319762Y-51606002D01*
X186314888Y-51597920D01*
X186306916Y-51594000D01*
X186022324Y-51594000D01*
X185954203Y-51573998D01*
X185948263Y-51569936D01*
X185894663Y-51530993D01*
X185894662Y-51530992D01*
X185889321Y-51527112D01*
X185883293Y-51524428D01*
X185883291Y-51524427D01*
X185716087Y-51449983D01*
X185716086Y-51449983D01*
X185710056Y-51447298D01*
X185614086Y-51426899D01*
X185524572Y-51407872D01*
X185524568Y-51407872D01*
X185518115Y-51406500D01*
X185321885Y-51406500D01*
X185315432Y-51407872D01*
X185315428Y-51407872D01*
X185225914Y-51426899D01*
X185129944Y-51447298D01*
X185123914Y-51449983D01*
X185123913Y-51449983D01*
X184956709Y-51524427D01*
X184956707Y-51524428D01*
X184950679Y-51527112D01*
X184945338Y-51530992D01*
X184945337Y-51530993D01*
X184891737Y-51569936D01*
X184824869Y-51593794D01*
X184817676Y-51594000D01*
X184539631Y-51594000D01*
X184526100Y-51597973D01*
X184525090Y-51605000D01*
X184560927Y-51715296D01*
X184566266Y-51727288D01*
X184594678Y-51776499D01*
X184611416Y-51845494D01*
X184594678Y-51902500D01*
X184568555Y-51947747D01*
X184562508Y-51958220D01*
X184501870Y-52144845D01*
X184501180Y-52151408D01*
X184501180Y-52151409D01*
X184500143Y-52161278D01*
X184481358Y-52340000D01*
X179930500Y-52340000D01*
X179940976Y-51082868D01*
X184526712Y-51082868D01*
X184533083Y-51086000D01*
X185147885Y-51086000D01*
X185163124Y-51081525D01*
X185164329Y-51080135D01*
X185166000Y-51072452D01*
X185166000Y-51067885D01*
X185674000Y-51067885D01*
X185678475Y-51083124D01*
X185679865Y-51084329D01*
X185687548Y-51086000D01*
X186300369Y-51086000D01*
X186313900Y-51082027D01*
X186314910Y-51075000D01*
X186279073Y-50964704D01*
X186273733Y-50952709D01*
X186182270Y-50794291D01*
X186174554Y-50783672D01*
X186052157Y-50647735D01*
X186042394Y-50638944D01*
X185894412Y-50531429D01*
X185883040Y-50524863D01*
X185715932Y-50450462D01*
X185703444Y-50446405D01*
X185691720Y-50443912D01*
X185677659Y-50444985D01*
X185674000Y-50454941D01*
X185674000Y-51067885D01*
X185166000Y-51067885D01*
X185166000Y-50458261D01*
X185162027Y-50444730D01*
X185151532Y-50443221D01*
X185136556Y-50446405D01*
X185124068Y-50450462D01*
X184956961Y-50524863D01*
X184945589Y-50531429D01*
X184797606Y-50638944D01*
X184787843Y-50647735D01*
X184665446Y-50783672D01*
X184657730Y-50794291D01*
X184566267Y-50952709D01*
X184560927Y-50964704D01*
X184527115Y-51068768D01*
X184526712Y-51082868D01*
X179940976Y-51082868D01*
X179954684Y-49437975D01*
X201840174Y-49437975D01*
X201858401Y-49646304D01*
X201860304Y-49657099D01*
X201914428Y-49859095D01*
X201918174Y-49869387D01*
X202006554Y-50058917D01*
X202012034Y-50068407D01*
X202040911Y-50109649D01*
X202051387Y-50118023D01*
X202064834Y-50110955D01*
X202730479Y-49445311D01*
X202736856Y-49433632D01*
X203466908Y-49433632D01*
X203467039Y-49435466D01*
X203471290Y-49442080D01*
X204140891Y-50111680D01*
X204152661Y-50118107D01*
X204164676Y-50108811D01*
X204192966Y-50068407D01*
X204198446Y-50058917D01*
X204286826Y-49869387D01*
X204290572Y-49859095D01*
X204344696Y-49657099D01*
X204346599Y-49646304D01*
X204364826Y-49437975D01*
X204364826Y-49427025D01*
X204346599Y-49218696D01*
X204344696Y-49207901D01*
X204290572Y-49005905D01*
X204286826Y-48995613D01*
X204198446Y-48806083D01*
X204192966Y-48796593D01*
X204164089Y-48755351D01*
X204153613Y-48746977D01*
X204140166Y-48754045D01*
X203474521Y-49419689D01*
X203466908Y-49433632D01*
X202736856Y-49433632D01*
X202738092Y-49431368D01*
X202737961Y-49429534D01*
X202733710Y-49422920D01*
X202064109Y-48753320D01*
X202052339Y-48746893D01*
X202040324Y-48756189D01*
X202012034Y-48796593D01*
X202006554Y-48806083D01*
X201918174Y-48995613D01*
X201914428Y-49005905D01*
X201860304Y-49207901D01*
X201858401Y-49218696D01*
X201840174Y-49427025D01*
X201840174Y-49437975D01*
X179954684Y-49437975D01*
X179963489Y-48381387D01*
X202416977Y-48381387D01*
X202424045Y-48394834D01*
X203089689Y-49060479D01*
X203103632Y-49068092D01*
X203105466Y-49067961D01*
X203112080Y-49063710D01*
X203781680Y-48394109D01*
X203788107Y-48382339D01*
X203778813Y-48370325D01*
X203738412Y-48342036D01*
X203728916Y-48336553D01*
X203539387Y-48248174D01*
X203529095Y-48244428D01*
X203327099Y-48190304D01*
X203316304Y-48188401D01*
X203107975Y-48170174D01*
X203097025Y-48170174D01*
X202888696Y-48188401D01*
X202877901Y-48190304D01*
X202675905Y-48244428D01*
X202665613Y-48248174D01*
X202476083Y-48336554D01*
X202466593Y-48342034D01*
X202425351Y-48370911D01*
X202416977Y-48381387D01*
X179963489Y-48381387D01*
X179969501Y-47660000D01*
X211921449Y-47660000D01*
X211941622Y-47916326D01*
X212001645Y-48166340D01*
X212003538Y-48170911D01*
X212003539Y-48170913D01*
X212095990Y-48394109D01*
X212100040Y-48403887D01*
X212234384Y-48623116D01*
X212401369Y-48818631D01*
X212596884Y-48985616D01*
X212816113Y-49119960D01*
X212820683Y-49121853D01*
X212820687Y-49121855D01*
X213049087Y-49216461D01*
X213053660Y-49218355D01*
X213140502Y-49239204D01*
X213298861Y-49277223D01*
X213298867Y-49277224D01*
X213303674Y-49278378D01*
X213392965Y-49285405D01*
X213493363Y-49293307D01*
X213493372Y-49293307D01*
X213495820Y-49293500D01*
X213624180Y-49293500D01*
X213626628Y-49293307D01*
X213626637Y-49293307D01*
X213727035Y-49285405D01*
X213816326Y-49278378D01*
X213821133Y-49277224D01*
X213821139Y-49277223D01*
X213979498Y-49239204D01*
X214066340Y-49218355D01*
X214070913Y-49216461D01*
X214299313Y-49121855D01*
X214299317Y-49121853D01*
X214303887Y-49119960D01*
X214523116Y-48985616D01*
X214718631Y-48818631D01*
X214885616Y-48623116D01*
X215019960Y-48403887D01*
X215024011Y-48394109D01*
X215116461Y-48170913D01*
X215116462Y-48170911D01*
X215118355Y-48166340D01*
X215178378Y-47916326D01*
X215198551Y-47660000D01*
X236921449Y-47660000D01*
X236941622Y-47916326D01*
X237001645Y-48166340D01*
X237003538Y-48170911D01*
X237003539Y-48170913D01*
X237095990Y-48394109D01*
X237100040Y-48403887D01*
X237234384Y-48623116D01*
X237401369Y-48818631D01*
X237596884Y-48985616D01*
X237816113Y-49119960D01*
X237820683Y-49121853D01*
X237820687Y-49121855D01*
X238049087Y-49216461D01*
X238053660Y-49218355D01*
X238140502Y-49239204D01*
X238298861Y-49277223D01*
X238298867Y-49277224D01*
X238303674Y-49278378D01*
X238392965Y-49285405D01*
X238493363Y-49293307D01*
X238493372Y-49293307D01*
X238495820Y-49293500D01*
X238624180Y-49293500D01*
X238626628Y-49293307D01*
X238626637Y-49293307D01*
X238727035Y-49285405D01*
X238816326Y-49278378D01*
X238821133Y-49277224D01*
X238821139Y-49277223D01*
X238979498Y-49239204D01*
X239066340Y-49218355D01*
X239070913Y-49216461D01*
X239299313Y-49121855D01*
X239299317Y-49121853D01*
X239303887Y-49119960D01*
X239523116Y-48985616D01*
X239718631Y-48818631D01*
X239885616Y-48623116D01*
X240019960Y-48403887D01*
X240024011Y-48394109D01*
X240116461Y-48170913D01*
X240116462Y-48170911D01*
X240118355Y-48166340D01*
X240178378Y-47916326D01*
X240198551Y-47660000D01*
X240178378Y-47403674D01*
X240118355Y-47153660D01*
X240019960Y-46916113D01*
X239885616Y-46696884D01*
X239718631Y-46501369D01*
X239523116Y-46334384D01*
X239303887Y-46200040D01*
X239299317Y-46198147D01*
X239299313Y-46198145D01*
X239070913Y-46103539D01*
X239070911Y-46103538D01*
X239066340Y-46101645D01*
X238979498Y-46080796D01*
X238821139Y-46042777D01*
X238821133Y-46042776D01*
X238816326Y-46041622D01*
X238727035Y-46034595D01*
X238626637Y-46026693D01*
X238626628Y-46026693D01*
X238624180Y-46026500D01*
X238495820Y-46026500D01*
X238493372Y-46026693D01*
X238493363Y-46026693D01*
X238392965Y-46034595D01*
X238303674Y-46041622D01*
X238298867Y-46042776D01*
X238298861Y-46042777D01*
X238140502Y-46080796D01*
X238053660Y-46101645D01*
X238049089Y-46103538D01*
X238049087Y-46103539D01*
X237820687Y-46198145D01*
X237820683Y-46198147D01*
X237816113Y-46200040D01*
X237596884Y-46334384D01*
X237401369Y-46501369D01*
X237234384Y-46696884D01*
X237100040Y-46916113D01*
X237001645Y-47153660D01*
X236941622Y-47403674D01*
X236921449Y-47660000D01*
X215198551Y-47660000D01*
X215178378Y-47403674D01*
X215118355Y-47153660D01*
X215019960Y-46916113D01*
X214885616Y-46696884D01*
X214718631Y-46501369D01*
X214523116Y-46334384D01*
X214303887Y-46200040D01*
X214299317Y-46198147D01*
X214299313Y-46198145D01*
X214070913Y-46103539D01*
X214070911Y-46103538D01*
X214066340Y-46101645D01*
X213979498Y-46080796D01*
X213821139Y-46042777D01*
X213821133Y-46042776D01*
X213816326Y-46041622D01*
X213727035Y-46034595D01*
X213626637Y-46026693D01*
X213626628Y-46026693D01*
X213624180Y-46026500D01*
X213495820Y-46026500D01*
X213493372Y-46026693D01*
X213493363Y-46026693D01*
X213392965Y-46034595D01*
X213303674Y-46041622D01*
X213298867Y-46042776D01*
X213298861Y-46042777D01*
X213140502Y-46080796D01*
X213053660Y-46101645D01*
X213049089Y-46103538D01*
X213049087Y-46103539D01*
X212820687Y-46198145D01*
X212820683Y-46198147D01*
X212816113Y-46200040D01*
X212596884Y-46334384D01*
X212401369Y-46501369D01*
X212234384Y-46696884D01*
X212100040Y-46916113D01*
X212001645Y-47153660D01*
X211941622Y-47403674D01*
X211921449Y-47660000D01*
X179969501Y-47660000D01*
X179998959Y-44124950D01*
X180019528Y-44056998D01*
X180073570Y-44010954D01*
X180124955Y-44000000D01*
X242374000Y-44000000D01*
X242442121Y-44020002D01*
G37*
%TD.AperFunction*%
%TD*%
M02*
