%TF.GenerationSoftware,KiCad,Pcbnew,(6.0.8)*%
%TF.CreationDate,2022-11-02T08:43:43+01:00*%
%TF.ProjectId,project_capteur_CO2,70726f6a-6563-4745-9f63-617074657572,rev?*%
%TF.SameCoordinates,Original*%
%TF.FileFunction,Soldermask,Bot*%
%TF.FilePolarity,Negative*%
%FSLAX46Y46*%
G04 Gerber Fmt 4.6, Leading zero omitted, Abs format (unit mm)*
G04 Created by KiCad (PCBNEW (6.0.8)) date 2022-11-02 08:43:43*
%MOMM*%
%LPD*%
G01*
G04 APERTURE LIST*
%ADD10R,0.850000X0.850000*%
%ADD11O,0.850000X0.850000*%
%ADD12C,1.350000*%
%ADD13R,1.350000X1.350000*%
%ADD14C,2.250000*%
%ADD15R,1.800000X1.800000*%
%ADD16C,1.800000*%
%ADD17C,1.600000*%
%ADD18O,1.600000X1.600000*%
%ADD19R,1.500000X1.500000*%
%ADD20C,1.500000*%
G04 APERTURE END LIST*
D10*
%TO.C,J1*%
X185420000Y-53340000D03*
D11*
X185420000Y-52340000D03*
X185420000Y-51340000D03*
%TD*%
D12*
%TO.C,U1*%
X213060000Y-50800000D03*
X213060000Y-53340000D03*
D13*
X213060000Y-96520000D03*
D12*
X213060000Y-55880000D03*
X213060000Y-58420000D03*
X213060000Y-60960000D03*
X213060000Y-63500000D03*
X213060000Y-66040000D03*
X213060000Y-68580000D03*
X213060000Y-71120000D03*
X213060000Y-73660000D03*
X213060000Y-76200000D03*
X213060000Y-78740000D03*
X213060000Y-81280000D03*
X213060000Y-83820000D03*
X213060000Y-86360000D03*
X213060000Y-88900000D03*
X213060000Y-91440000D03*
X213060000Y-93980000D03*
X239060000Y-96520000D03*
X239060000Y-93980000D03*
X239060000Y-91440000D03*
X239060000Y-88900000D03*
X239060000Y-86360000D03*
X239060000Y-83820000D03*
X239060000Y-81280000D03*
X239060000Y-78740000D03*
X239060000Y-76200000D03*
X239060000Y-73660000D03*
X239060000Y-71120000D03*
X239060000Y-68580000D03*
X239060000Y-66040000D03*
X239060000Y-63500000D03*
X239060000Y-60960000D03*
X239060000Y-58420000D03*
X239060000Y-55880000D03*
X239060000Y-53340000D03*
D13*
X239060000Y-50800000D03*
D14*
X213560000Y-99660000D03*
X238560000Y-99660000D03*
X213560000Y-47660000D03*
X238560000Y-47660000D03*
%TD*%
D15*
%TO.C,D3*%
X185225000Y-68580000D03*
D16*
X187765000Y-68580000D03*
%TD*%
D15*
%TO.C,D2*%
X185225000Y-82000000D03*
D16*
X187765000Y-82000000D03*
%TD*%
D15*
%TO.C,D1*%
X185225000Y-96000000D03*
D16*
X187765000Y-96000000D03*
%TD*%
D17*
%TO.C,R3*%
X194650000Y-68580000D03*
D18*
X207350000Y-68580000D03*
%TD*%
D17*
%TO.C,R2*%
X194650000Y-82000000D03*
D18*
X207350000Y-82000000D03*
%TD*%
D17*
%TO.C,R1*%
X194650000Y-96000000D03*
D18*
X207350000Y-96000000D03*
%TD*%
D19*
%TO.C,U2*%
X203102500Y-57052500D03*
D20*
X203102500Y-54512500D03*
X203102500Y-51972500D03*
X203102500Y-49432500D03*
%TD*%
M02*
